<?xml version="1.0" standalone="no"?>
<!DOCTYPE svg PUBLIC "-//W3C//DTD SVG 20010904//EN"
 "http://www.w3.org/TR/2001/REC-SVG-20010904/DTD/svg10.dtd">
<svg version="1.0" xmlns="http://www.w3.org/2000/svg"
 width="2883.000000pt" height="2883.000000pt" viewBox="0 0 2883.000000 2883.000000"
 preserveAspectRatio="xMidYMid meet">
<metadata>
Created by potrace 1.14, written by Peter Selinger 2001-2017
</metadata>
<g transform="translate(0.000000,2883.000000) scale(0.100000,-0.100000)"
fill="#000000" stroke="none">
<path d="M13739 28826 c-2 -3 -58 -7 -124 -11 -66 -3 -136 -8 -155 -10 -19 -2
-75 -6 -125 -10 -49 -3 -103 -8 -120 -10 -16 -2 -66 -7 -110 -10 -44 -4 -82
-8 -85 -10 -3 -2 -41 -6 -85 -9 -44 -3 -89 -8 -100 -10 -11 -2 -49 -7 -85 -11
-36 -4 -74 -9 -85 -11 -11 -1 -42 -5 -70 -9 -27 -3 -135 -20 -240 -36 -104
-17 -199 -32 -210 -34 -118 -18 -194 -33 -480 -91 -11 -2 -31 -6 -45 -9 -44
-9 -63 -13 -200 -45 -74 -17 -144 -33 -156 -36 -30 -6 -289 -72 -349 -89 -27
-8 -90 -26 -140 -40 -322 -91 -705 -215 -1019 -331 -153 -57 -575 -225 -656
-262 -25 -11 -106 -47 -180 -80 -241 -107 -633 -298 -810 -394 -36 -20 -94
-51 -130 -70 -71 -39 -258 -144 -360 -203 -36 -21 -74 -43 -85 -49 -11 -6 -31
-19 -45 -27 -14 -9 -97 -60 -185 -114 -220 -135 -493 -316 -725 -480 -106 -76
-199 -142 -205 -147 -9 -8 -180 -139 -311 -238 -54 -41 -359 -288 -409 -331
-16 -15 -53 -46 -81 -70 -27 -24 -79 -69 -113 -99 -35 -30 -73 -63 -85 -73
-36 -32 -196 -179 -285 -262 -184 -173 -648 -645 -758 -771 -29 -34 -157 -176
-173 -194 -8 -9 -39 -45 -69 -80 -30 -36 -60 -69 -66 -75 -6 -5 -40 -46 -75
-90 -36 -44 -69 -85 -75 -91 -17 -19 -80 -96 -134 -164 -28 -36 -57 -72 -64
-80 -7 -8 -28 -35 -47 -60 -44 -57 -45 -58 -78 -101 -15 -20 -38 -51 -52 -69
-45 -59 -234 -318 -270 -370 -19 -28 -42 -59 -50 -70 -27 -34 -238 -351 -337
-506 -121 -190 -333 -540 -398 -659 -12 -22 -31 -56 -43 -76 -11 -21 -44 -81
-73 -135 -29 -55 -55 -103 -60 -109 -11 -15 -270 -534 -324 -650 -207 -442
-424 -973 -563 -1375 -22 -63 -44 -126 -50 -140 -9 -22 -71 -210 -77 -235 -1
-5 -5 -17 -8 -25 -23 -56 -218 -725 -231 -795 -3 -11 -18 -74 -35 -140 -30
-122 -61 -250 -81 -340 -7 -27 -13 -57 -15 -65 -8 -30 -85 -406 -94 -460 -75
-422 -81 -460 -96 -569 -3 -30 -8 -62 -10 -71 -2 -9 -6 -41 -10 -70 -4 -29 -8
-60 -10 -69 -2 -9 -6 -44 -10 -76 -4 -33 -9 -71 -11 -85 -2 -14 -6 -53 -9 -86
-3 -34 -7 -70 -9 -80 -2 -11 -7 -53 -11 -94 -3 -41 -8 -91 -10 -110 -2 -19 -6
-66 -10 -105 -3 -38 -8 -88 -10 -110 -2 -22 -7 -83 -11 -135 -3 -52 -7 -113
-9 -135 -27 -308 -27 -1542 -1 -1915 3 -30 7 -103 11 -162 3 -59 8 -122 10
-140 2 -18 6 -67 10 -108 10 -122 22 -243 30 -300 2 -19 7 -55 9 -80 8 -66 17
-142 21 -165 1 -11 8 -60 14 -110 7 -49 14 -101 16 -115 2 -14 7 -43 10 -65 3
-22 15 -92 25 -155 11 -63 22 -133 25 -155 4 -22 8 -47 10 -55 2 -8 7 -35 10
-60 4 -25 11 -64 16 -88 5 -23 12 -59 15 -78 7 -44 6 -37 37 -194 14 -69 40
-188 57 -265 17 -77 33 -149 35 -160 3 -11 30 -119 61 -240 85 -333 98 -383
170 -625 85 -284 239 -744 324 -965 123 -318 274 -686 354 -858 20 -43 36 -80
36 -81 0 -23 343 -710 462 -926 104 -188 207 -372 218 -385 4 -5 18 -30 32
-55 48 -87 232 -385 240 -388 4 -2 8 -8 8 -13 0 -12 206 -325 348 -529 176
-253 634 -858 681 -900 4 -3 40 -45 81 -95 41 -49 79 -95 85 -101 5 -6 35 -40
65 -75 82 -94 227 -257 279 -313 291 -310 595 -613 852 -851 124 -114 244
-223 279 -251 19 -16 37 -31 40 -34 3 -3 34 -30 70 -60 35 -30 70 -59 76 -65
6 -5 30 -26 54 -45 24 -19 48 -40 54 -45 33 -32 254 -205 426 -335 47 -36 90
-69 96 -75 6 -5 37 -28 68 -50 32 -22 92 -65 134 -96 137 -99 223 -158 427
-293 343 -228 638 -407 960 -583 398 -218 810 -419 1225 -598 30 -13 71 -30
90 -38 454 -196 1128 -427 1690 -580 191 -53 592 -150 700 -171 14 -2 61 -12
105 -21 44 -9 89 -19 100 -21 11 -2 43 -8 70 -14 28 -5 66 -12 85 -15 19 -3
96 -17 170 -31 74 -13 153 -27 175 -29 22 -3 51 -7 65 -10 14 -2 45 -7 70 -10
25 -4 56 -8 70 -10 22 -3 114 -16 230 -31 19 -2 49 -6 65 -9 17 -2 57 -7 90
-10 33 -3 74 -8 90 -10 17 -2 68 -7 115 -11 47 -3 92 -8 100 -9 9 -2 60 -6
115 -10 55 -4 111 -8 125 -11 163 -27 1786 -27 1928 1 9 1 62 6 117 9 55 4
111 9 125 11 14 2 58 7 99 10 41 4 86 8 100 10 31 4 118 14 181 21 53 5 90 10
145 18 22 3 60 8 85 11 25 3 70 10 100 15 30 5 75 12 100 15 25 3 70 10 100
15 30 5 72 12 94 16 21 3 48 8 60 10 11 2 62 11 111 20 50 8 133 24 185 35 52
11 107 22 122 24 45 8 345 74 360 80 7 2 25 6 40 9 108 18 646 169 1053 296
226 70 894 318 1050 390 78 35 157 70 161 70 4 0 94 40 274 122 89 41 646 318
715 356 73 40 164 90 250 137 28 15 64 36 80 46 17 10 42 24 55 31 186 100
669 406 980 621 287 199 861 635 930 707 3 3 25 21 50 41 25 20 55 45 66 55
12 11 46 39 75 64 30 25 94 81 144 125 49 44 95 85 101 90 243 214 668 634
939 929 137 149 264 293 395 446 8 10 31 37 50 61 19 23 49 59 66 78 150 174
541 690 707 931 73 107 310 464 365 550 165 260 439 737 579 1010 50 96 101
195 114 220 13 25 24 47 24 50 1 3 40 84 87 180 198 404 357 773 515 1200 36
96 78 211 95 255 16 44 32 86 33 95 2 8 29 89 60 180 155 454 347 1153 429
1563 3 12 16 76 30 142 25 121 36 173 41 210 2 11 9 45 15 75 11 56 16 84 25
143 3 17 10 57 15 87 11 67 16 95 30 185 6 39 13 81 15 95 2 14 7 48 11 75 3
28 7 57 9 65 1 8 6 40 10 70 3 30 8 66 10 80 2 14 7 50 10 80 3 30 8 66 10 80
10 65 44 395 50 490 4 47 8 101 10 120 2 19 6 80 10 135 3 55 8 120 10 145 26
308 26 1370 0 1750 -2 30 -6 98 -10 150 -7 111 -13 196 -19 265 -14 142 -27
275 -31 313 -12 105 -16 139 -20 167 -2 17 -7 50 -10 75 -16 148 -20 177 -45
340 -11 69 -22 143 -25 165 -5 35 -12 77 -21 125 -2 8 -5 33 -9 55 -3 22 -7
51 -10 65 -3 14 -9 50 -15 80 -6 30 -12 66 -15 80 -3 14 -9 50 -15 80 -28 154
-107 518 -142 655 -11 44 -21 87 -23 95 -7 35 -78 310 -97 374 -11 38 -21 76
-23 85 -6 27 -75 264 -85 291 -5 14 -23 72 -41 130 -57 188 -202 611 -269 785
-17 44 -37 98 -45 120 -8 22 -32 85 -55 139 -22 55 -40 105 -40 113 0 7 -4 13
-10 13 -5 0 -10 6 -10 14 0 8 -42 113 -94 233 -143 330 -230 517 -382 818
-114 226 -179 351 -234 446 -17 30 -46 83 -65 119 -45 82 -61 110 -176 303
-52 87 -98 166 -104 175 -9 17 -26 44 -110 177 -93 147 -337 511 -440 655
-116 162 -310 425 -330 446 -5 6 -19 23 -30 38 -11 16 -24 33 -30 40 -5 6 -26
32 -45 56 -19 25 -40 52 -46 60 -24 30 -363 436 -386 461 -13 14 -45 52 -73
84 -27 31 -63 72 -80 90 -16 17 -73 79 -125 136 -176 194 -758 769 -920 909
-14 12 -46 40 -71 63 -39 37 -100 89 -175 154 -12 10 -45 38 -74 63 -29 25
-58 50 -64 55 -6 6 -47 40 -91 75 -44 36 -85 70 -92 75 -23 20 -121 97 -248
195 -71 56 -137 107 -145 113 -198 159 -947 663 -1185 797 -16 9 -60 36 -98
58 -37 23 -72 42 -77 42 -6 0 -10 5 -10 10 0 6 -5 10 -11 10 -6 0 -45 20 -86
45 -40 25 -75 45 -77 45 -2 0 -41 21 -87 47 -438 244 -1071 542 -1533 724 -56
22 -110 44 -121 49 -90 41 -513 190 -785 277 -276 88 -854 247 -1007 278 -10
1 -56 12 -103 23 -91 22 -510 107 -574 116 -21 4 -41 8 -45 10 -3 2 -32 7 -64
10 -32 4 -64 9 -70 12 -7 2 -25 6 -42 8 -16 2 -61 9 -100 15 -38 5 -88 13
-110 16 -22 3 -49 8 -60 10 -11 2 -47 7 -80 10 -33 4 -71 8 -85 10 -14 3 -50
7 -80 10 -30 3 -66 8 -80 10 -24 4 -56 8 -170 20 -89 9 -141 14 -205 20 -108
11 -129 13 -235 20 -58 4 -114 9 -125 12 -24 6 -1490 14 -1496 9z m1151 -1811
c113 -3 223 -8 245 -10 22 -1 85 -6 140 -9 55 -4 111 -9 125 -11 14 -2 57 -6
95 -10 39 -3 89 -8 113 -10 23 -3 61 -7 85 -10 79 -8 302 -36 327 -40 14 -2
45 -7 70 -10 25 -3 52 -8 60 -10 8 -2 38 -6 65 -10 28 -3 88 -13 135 -21 47
-8 101 -17 120 -20 19 -3 42 -7 50 -9 8 -3 62 -14 120 -25 58 -10 116 -22 130
-25 14 -3 36 -7 50 -10 234 -42 861 -210 1205 -322 320 -104 807 -287 1021
-384 107 -48 133 -59 229 -102 472 -211 1104 -557 1545 -846 48 -31 93 -60
102 -66 19 -12 210 -142 283 -193 73 -52 265 -191 300 -219 42 -33 41 -32 140
-107 87 -66 121 -92 209 -166 24 -19 60 -48 81 -65 21 -16 43 -35 49 -40 6 -6
38 -33 71 -60 33 -28 65 -54 71 -60 6 -5 40 -35 75 -65 66 -57 121 -106 224
-200 105 -96 738 -732 810 -814 39 -44 75 -84 80 -90 27 -29 215 -247 250
-291 22 -27 54 -65 71 -84 58 -69 291 -367 385 -496 298 -404 627 -909 831
-1275 11 -19 33 -59 50 -88 82 -145 365 -706 463 -917 77 -167 291 -673 300
-710 1 -5 7 -23 14 -40 11 -27 43 -114 116 -315 105 -289 235 -719 336 -1106
47 -181 42 -161 68 -279 11 -49 29 -130 40 -180 11 -49 31 -148 45 -220 14
-71 30 -152 36 -180 14 -70 57 -330 66 -390 3 -27 8 -59 10 -69 2 -11 8 -56
14 -100 6 -45 13 -92 15 -106 2 -14 7 -50 10 -80 3 -30 8 -62 10 -70 2 -8 7
-49 11 -90 3 -41 8 -86 9 -100 1 -14 6 -56 9 -95 4 -38 9 -88 11 -110 6 -52
13 -136 21 -255 3 -52 8 -113 9 -135 19 -238 25 -978 12 -1300 -12 -278 -26
-495 -42 -635 -2 -19 -7 -73 -11 -120 -3 -47 -8 -93 -9 -102 -2 -9 -7 -48 -10
-85 -4 -37 -8 -79 -11 -93 -2 -14 -7 -50 -10 -80 -3 -30 -11 -95 -19 -145 -7
-49 -16 -110 -19 -135 -3 -25 -8 -56 -11 -70 -5 -27 -14 -84 -19 -128 -2 -15
-11 -66 -20 -112 -8 -47 -18 -101 -21 -120 -40 -237 -157 -753 -235 -1040 -18
-63 -33 -123 -35 -133 -2 -10 -15 -57 -29 -105 -169 -576 -379 -1149 -623
-1697 -138 -311 -357 -744 -527 -1043 -20 -35 -36 -68 -36 -73 0 -5 -4 -9 -10
-9 -5 0 -10 -5 -10 -10 0 -6 -18 -40 -40 -76 -22 -36 -40 -68 -40 -70 0 -3 -8
-17 -19 -32 -10 -15 -51 -81 -91 -147 -111 -181 -335 -522 -433 -660 -12 -17
-62 -86 -111 -155 -50 -69 -93 -127 -96 -130 -3 -3 -30 -38 -60 -79 -29 -40
-62 -83 -71 -95 -10 -11 -50 -61 -89 -111 -333 -420 -500 -605 -960 -1065
-179 -179 -372 -368 -429 -420 -57 -52 -111 -102 -120 -110 -9 -8 -43 -37 -76
-65 -33 -27 -62 -52 -65 -55 -3 -3 -32 -27 -65 -55 -33 -27 -62 -52 -65 -55
-9 -10 -152 -124 -289 -233 -425 -335 -1062 -762 -1506 -1007 -257 -142 -339
-185 -560 -294 -137 -68 -279 -137 -315 -154 -141 -64 -322 -143 -455 -196
-77 -32 -149 -61 -160 -66 -117 -54 -695 -253 -960 -331 -225 -67 -726 -196
-833 -215 -13 -3 -99 -20 -190 -40 -92 -19 -180 -37 -197 -40 -58 -9 -100 -17
-120 -21 -11 -2 -36 -6 -55 -9 -19 -3 -73 -11 -120 -19 -86 -14 -113 -18 -205
-30 -27 -4 -63 -9 -80 -12 -16 -2 -48 -6 -70 -9 -22 -2 -56 -6 -75 -9 -77 -10
-294 -33 -385 -40 -22 -1 -74 -6 -115 -9 -381 -34 -1226 -40 -1635 -11 -157
11 -224 16 -265 20 -25 3 -71 7 -103 10 -87 8 -241 25 -277 30 -14 2 -47 7
-75 10 -120 13 -141 16 -260 35 -38 7 -83 13 -100 16 -70 9 -119 17 -265 44
-30 6 -68 13 -85 16 -354 63 -851 186 -1296 322 -161 50 -474 154 -514 172
-11 5 -94 37 -185 71 -191 71 -556 224 -714 298 -59 28 -110 51 -113 51 -6 0
-473 234 -541 271 -31 18 -86 48 -122 67 -98 54 -314 178 -413 238 -49 30 -90
54 -93 54 -3 0 -20 11 -38 25 -18 14 -36 25 -39 25 -4 0 -26 13 -49 29 -24 16
-124 82 -223 147 -327 215 -698 486 -945 692 -36 29 -72 59 -80 65 -20 15
-133 110 -140 117 -3 3 -34 30 -70 60 -36 30 -70 59 -76 65 -6 5 -46 42 -90
80 -245 219 -598 565 -790 774 -33 35 -75 81 -94 101 -19 21 -64 70 -100 110
-36 41 -69 78 -75 84 -5 7 -35 41 -65 76 -30 36 -59 70 -65 76 -21 23 -220
267 -290 356 -27 34 -54 68 -60 74 -18 21 -276 371 -332 451 -48 69 -288 429
-348 523 -76 118 -64 98 -236 392 -183 313 -233 404 -395 728 -102 205 -130
264 -199 415 -197 433 -372 883 -531 1365 -26 80 -49 150 -50 155 -1 6 -12 44
-25 85 -13 41 -24 77 -24 80 -1 3 -9 32 -19 65 -10 33 -20 67 -22 75 -2 8 -10
40 -19 70 -15 51 -30 104 -40 140 -15 61 -106 429 -109 445 -2 11 -11 50 -20
86 -8 37 -18 80 -21 95 -8 46 -15 78 -19 99 -19 93 -68 346 -72 370 -2 17 -6
41 -9 55 -11 54 -14 77 -20 112 -3 21 -7 55 -10 75 -3 21 -8 49 -10 63 -2 14
-7 45 -10 70 -3 25 -8 56 -10 70 -8 42 -13 81 -25 180 -6 52 -13 109 -15 125
-2 17 -6 57 -10 90 -3 33 -7 78 -10 100 -8 68 -23 232 -30 335 -4 41 -8 93
-10 115 -26 259 -26 1529 0 1751 2 21 7 75 10 119 4 44 8 105 11 135 2 30 6
71 9 90 2 19 7 71 11 115 3 44 7 87 9 95 2 8 6 44 10 80 3 36 8 76 10 90 2 14
6 50 10 80 4 30 8 66 10 80 2 14 7 45 10 70 3 25 10 70 15 100 5 30 12 75 15
100 3 25 12 81 20 125 8 44 17 96 20 115 3 19 8 46 10 60 10 49 15 75 20 100
18 98 29 152 56 280 17 80 32 152 34 160 17 85 86 361 127 510 22 80 41 153
43 162 35 171 359 1117 464 1353 5 11 39 92 76 180 67 159 120 278 190 430 46
100 274 556 284 570 4 6 33 57 63 115 256 484 704 1181 1040 1615 5 6 36 46
70 90 76 99 183 233 220 276 9 11 31 39 50 61 18 23 51 63 73 88 22 26 49 58
60 71 38 45 187 214 273 309 93 102 628 640 728 731 102 93 364 321 469 408
55 46 111 93 125 105 14 11 43 34 65 50 22 17 42 32 45 35 8 9 70 57 235 180
83 62 157 118 165 124 175 136 743 506 1005 657 17 9 79 46 140 80 60 35 159
90 220 122 203 107 795 398 811 398 2 0 34 14 71 31 210 95 537 223 853 334
196 68 575 188 635 200 6 2 42 12 80 23 137 41 536 140 635 158 14 3 53 11 88
19 34 8 77 17 95 20 17 3 39 8 47 10 19 5 33 8 275 50 175 30 262 44 441 70
23 3 64 8 90 10 27 3 60 7 74 10 14 2 52 7 85 10 33 4 76 8 95 10 19 2 67 7
105 10 39 3 84 8 100 10 17 2 73 7 125 10 52 4 113 9 135 11 22 2 155 6 295
10 140 4 256 7 257 8 4 3 496 -3 673 -9z"/>
<path d="M13750 22549 c0 -2429 -3 -3048 -12 -3051 -7 -2 -1055 -4 -2328 -3
-2034 0 -2315 2 -2314 15 3 22 191 567 267 770 64 173 184 478 234 595 14 33
29 69 34 80 44 106 208 473 249 560 187 396 439 882 587 1133 24 41 43 75 43
78 0 14 347 581 442 721 26 39 48 76 48 81 0 6 3 12 8 14 4 2 32 41 62 88 30
47 58 87 61 90 4 3 29 39 56 80 46 71 103 153 121 175 4 6 26 37 49 70 37 54
289 396 310 420 5 6 38 48 73 95 36 46 72 94 82 105 41 50 85 105 113 140 28
36 87 109 189 230 42 50 166 195 215 250 79 90 123 146 119 150 -3 3 -49 -4
-103 -15 -54 -11 -107 -22 -119 -24 -11 -2 -51 -11 -89 -20 -37 -9 -81 -18
-98 -21 -17 -3 -126 -30 -243 -61 -116 -30 -219 -56 -228 -59 -74 -17 -593
-181 -613 -193 -5 -4 -15 -7 -20 -8 -14 -2 -407 -150 -449 -168 -17 -8 -69
-29 -115 -48 -60 -23 -97 -46 -127 -76 -36 -36 -261 -365 -388 -567 -20 -33
-60 -96 -88 -140 -82 -129 -208 -336 -208 -340 0 -3 -15 -28 -34 -57 -46 -72
-263 -455 -376 -663 -84 -156 -450 -885 -450 -897 0 -3 -17 -41 -37 -84 -20
-43 -37 -81 -38 -84 0 -3 -6 -14 -12 -25 -15 -28 -171 -386 -228 -525 -26 -63
-52 -126 -58 -140 -5 -14 -11 -29 -13 -35 -2 -5 -39 -100 -82 -210 -148 -376
-319 -869 -452 -1305 -22 -74 -45 -144 -49 -155 -8 -20 -17 -20 -1461 -20
-798 0 -1455 -2 -1459 -5 -16 -11 -132 -261 -230 -495 -23 -55 -48 -113 -56
-130 -60 -136 -278 -728 -301 -819 l-6 -26 163 -1 c90 0 793 -2 1561 -4 769
-2 1402 -6 1408 -10 6 -4 8 -15 5 -26 -4 -10 -8 -31 -11 -46 -2 -16 -12 -64
-21 -108 -9 -44 -17 -89 -19 -100 -1 -11 -16 -94 -33 -185 -38 -205 -75 -437
-97 -600 -2 -19 -9 -62 -14 -95 -5 -33 -12 -85 -15 -115 -3 -30 -8 -66 -10
-80 -8 -52 -25 -201 -40 -350 -3 -36 -8 -78 -10 -95 -3 -16 -7 -57 -10 -90 -3
-33 -7 -82 -10 -110 -2 -27 -7 -81 -10 -120 -3 -38 -7 -92 -10 -120 -3 -27 -7
-86 -10 -130 -8 -137 -16 -258 -20 -310 -24 -298 -24 -1574 0 -1830 2 -22 6
-89 9 -150 6 -116 12 -196 22 -310 3 -38 7 -95 9 -125 5 -67 14 -173 20 -220
2 -19 7 -66 10 -105 4 -38 8 -83 10 -100 2 -16 7 -55 10 -85 3 -30 8 -71 10
-90 3 -19 7 -53 9 -75 3 -22 8 -56 10 -75 3 -19 8 -56 11 -82 3 -26 10 -79 15
-118 5 -39 12 -89 15 -113 3 -23 7 -51 9 -62 4 -21 14 -89 22 -140 2 -16 6
-41 9 -55 2 -14 7 -45 10 -69 6 -38 18 -112 80 -456 8 -44 21 -113 29 -152 9
-40 18 -85 21 -100 2 -16 18 -93 34 -173 16 -80 27 -147 25 -149 -2 -2 -572
-5 -1266 -7 -695 -1 -1381 -3 -1526 -3 l-263 -1 6 -22 c8 -29 102 -282 120
-323 7 -16 29 -73 50 -125 104 -262 209 -494 370 -815 l90 -180 1397 0 c768 0
1398 -2 1400 -5 3 -3 51 -147 108 -320 86 -265 125 -378 167 -490 3 -8 7 -19
9 -25 1 -5 17 -48 34 -95 36 -94 72 -189 100 -265 10 -27 29 -77 43 -110 14
-33 55 -134 92 -225 37 -91 73 -178 81 -195 103 -236 211 -478 244 -550 59
-126 330 -672 388 -780 119 -223 164 -304 287 -520 72 -126 138 -241 146 -255
8 -14 16 -27 19 -30 3 -3 14 -21 24 -40 11 -19 90 -147 175 -283 86 -137 161
-256 166 -265 6 -9 64 -98 129 -198 l119 -180 181 -77 c100 -42 213 -88 251
-103 39 -14 85 -33 103 -41 53 -23 565 -200 602 -208 8 -2 51 -14 95 -28 44
-14 113 -35 153 -46 76 -23 489 -129 532 -137 14 -3 66 -14 115 -25 154 -35
225 -47 225 -39 0 9 -63 92 -114 150 -33 38 -59 69 -202 241 -291 349 -644
821 -895 1194 -62 94 -117 172 -121 173 -5 2 -8 7 -8 12 0 4 -31 54 -68 111
-95 144 -141 218 -214 337 -35 57 -73 120 -86 140 -12 20 -27 46 -32 57 -6 11
-18 32 -28 47 -24 38 -261 457 -311 550 -22 43 -60 113 -82 155 -88 164 -379
754 -379 768 0 2 -20 45 -44 97 -36 79 -141 320 -218 503 -11 28 -27 64 -34
80 -29 69 -147 375 -196 510 -94 259 -138 388 -133 395 7 11 266 12 2555 14
l1975 1 2 -2848 c0 -1566 3 -2853 6 -2860 3 -9 148 -12 653 -12 l649 0 3 2860
2 2860 1983 -1 c2219 -2 2535 -3 2541 -13 6 -10 -236 -675 -264 -723 -5 -10
-10 -23 -10 -29 0 -6 -11 -37 -24 -68 -14 -31 -75 -174 -136 -318 -172 -408
-423 -934 -615 -1288 -156 -290 -218 -400 -364 -645 -47 -80 -91 -154 -97
-165 -22 -40 -250 -401 -271 -430 -5 -6 -66 -98 -138 -205 -71 -107 -132 -197
-135 -200 -4 -3 -33 -43 -65 -90 -32 -47 -76 -110 -98 -140 -53 -72 -268 -361
-284 -380 -7 -8 -50 -63 -96 -122 -46 -59 -99 -126 -118 -150 -81 -100 -174
-213 -179 -218 -3 -3 -41 -48 -85 -100 -44 -52 -84 -100 -90 -106 -11 -12 -72
-87 -92 -113 -7 -9 -13 -20 -13 -24 0 -9 73 -2 130 13 19 5 49 12 67 15 17 3
71 14 120 26 48 12 95 23 103 24 276 64 718 198 1085 328 156 56 542 212 711
288 34 15 55 38 111 121 38 57 72 108 74 113 2 6 40 64 84 130 69 104 213 329
248 390 7 11 15 22 18 25 3 3 8 10 10 15 2 6 63 109 135 230 125 209 218 371
296 515 86 158 103 189 136 250 48 90 345 684 372 745 13 28 47 104 77 170
278 610 562 1344 758 1960 26 83 52 154 57 160 6 7 482 10 1390 10 l1381 0 43
80 c24 44 47 87 51 95 3 8 43 92 89 185 97 200 192 411 263 585 29 69 56 134
61 145 56 131 131 343 122 349 -12 7 -214 8 -1637 11 -759 2 -1389 6 -1400 8
-24 5 -24 -5 14 170 17 77 34 153 37 170 3 18 20 109 39 204 19 94 37 184 39
200 3 15 8 39 11 53 2 14 7 39 10 55 3 17 12 68 20 115 8 47 17 102 21 124 3
21 8 48 10 60 2 11 7 41 10 66 3 25 7 52 9 60 6 19 52 339 60 410 3 30 8 66
10 80 8 45 19 132 30 240 3 30 7 71 10 90 11 94 26 232 30 290 2 36 7 85 10
110 2 25 7 83 11 130 3 47 8 101 9 120 2 19 6 82 9 140 4 58 9 134 11 170 28
440 28 1439 0 1870 -2 36 -7 106 -10 155 -4 50 -8 115 -10 145 -6 82 -22 277
-30 350 -2 19 -7 73 -10 120 -4 47 -8 87 -10 90 -1 3 -6 41 -9 85 -4 44 -9 87
-11 95 -2 8 -7 44 -10 80 -3 36 -8 76 -10 90 -1 14 -6 45 -9 70 -4 25 -8 61
-11 80 -3 19 -7 54 -10 77 -3 23 -8 57 -10 75 -2 18 -9 62 -14 98 -6 36 -20
124 -31 195 -11 72 -24 155 -30 185 -15 86 -34 195 -35 200 -1 3 -5 25 -9 50
-5 25 -10 54 -12 65 -3 11 -7 38 -10 60 -3 22 -9 54 -14 70 -5 17 -11 48 -14
70 -3 22 -8 55 -12 73 l-5 32 128 1 c70 0 763 2 1539 3 836 2 1418 7 1427 12
15 9 10 30 -47 194 -106 306 -232 629 -356 905 -10 22 -28 63 -40 90 -12 28
-42 92 -66 144 -24 51 -44 97 -44 102 0 5 -71 9 -157 9 -87 1 -633 3 -1213 5
-580 2 -1166 4 -1302 4 l-246 1 -7 33 c-4 17 -13 50 -20 72 -7 22 -30 94 -50
160 -20 66 -57 183 -82 260 -25 77 -46 145 -47 150 -2 6 -6 17 -9 25 -4 8 -17
49 -31 90 -61 188 -233 662 -266 735 -5 11 -34 85 -65 165 -32 80 -65 163 -75
185 -10 22 -34 78 -53 125 -59 144 -212 487 -310 695 -58 122 -376 756 -427
850 -68 127 -140 257 -167 305 -11 19 -35 62 -53 95 -155 279 -372 632 -643
1042 -154 234 -198 295 -222 304 -16 6 -43 17 -60 24 -16 7 -70 29 -120 49
-49 20 -99 41 -110 46 -35 17 -334 126 -502 184 -137 46 -367 117 -588 181
-214 61 -775 190 -798 182 -8 -2 128 -170 198 -243 5 -6 28 -32 50 -59 22 -27
56 -67 75 -90 20 -22 56 -65 80 -95 25 -30 47 -57 50 -60 4 -4 40 -49 97 -120
112 -140 158 -201 264 -340 69 -91 179 -239 243 -330 65 -91 123 -172 129
-180 17 -21 349 -520 363 -545 6 -11 49 -81 96 -155 146 -231 371 -619 505
-870 108 -201 133 -250 234 -450 59 -118 126 -255 149 -305 93 -198 120 -256
120 -260 0 -1 18 -41 39 -87 57 -121 178 -407 255 -603 37 -93 74 -186 81
-205 8 -19 33 -84 55 -145 22 -60 44 -117 47 -125 3 -8 7 -19 9 -25 1 -5 10
-30 19 -55 18 -47 125 -357 129 -375 2 -5 6 -17 9 -25 25 -67 54 -170 49 -174
-14 -7 -347 -9 -2477 -10 l-2170 -1 -5 3045 -5 3045 -652 0 -653 0 0 -3046z
m-7 -4508 c4 0 7 -1699 7 -3775 0 -3010 -3 -3775 -12 -3778 -15 -5 -4949 0
-4954 5 -6 6 -103 450 -153 702 -43 217 -96 511 -116 640 -21 138 -35 233 -39
250 -4 26 -15 99 -21 150 -7 53 -15 114 -20 145 -3 14 -7 50 -10 80 -3 30 -7
71 -10 90 -3 19 -7 60 -10 90 -3 30 -7 64 -9 75 -2 11 -7 60 -11 109 -4 50 -8
97 -10 106 -2 8 -6 58 -10 110 -4 52 -9 113 -11 135 -1 22 -6 85 -9 140 -3 55
-7 129 -10 165 -27 380 -27 1497 0 1890 2 30 7 102 10 160 4 58 8 125 10 150
2 25 6 83 10 130 3 47 8 96 10 110 2 14 7 63 11 110 4 47 8 92 9 100 1 8 5 47
9 85 4 39 9 81 12 94 2 14 6 54 10 90 3 36 7 68 9 71 2 3 6 39 10 80 4 41 8
77 10 80 2 3 6 37 10 75 4 39 9 72 10 75 2 3 6 30 10 60 3 30 8 62 10 70 2 8
7 35 10 60 3 25 17 110 31 190 14 80 27 156 29 170 2 14 13 75 24 135 12 61
28 146 36 190 9 44 17 89 20 100 2 11 13 65 24 120 11 55 25 116 32 135 l11
35 2511 -1 c1382 -1 2515 -2 2520 -3z m6308 -34 c61 -5 65 -9 75 -64 4 -27 8
-50 9 -53 1 -5 12 -59 20 -100 13 -64 36 -199 41 -230 2 -19 7 -48 11 -65 3
-16 7 -37 8 -45 1 -8 7 -42 13 -75 15 -79 22 -121 37 -225 12 -85 16 -105 25
-160 5 -30 12 -75 15 -100 6 -54 15 -115 21 -151 2 -15 6 -47 9 -70 13 -109
17 -143 20 -158 1 -9 6 -45 9 -81 4 -36 9 -81 11 -100 2 -19 7 -64 10 -100 3
-36 8 -81 10 -100 15 -121 30 -334 50 -680 24 -420 25 -1563 1 -1990 -2 -30
-7 -120 -11 -200 -4 -80 -8 -161 -10 -180 -2 -19 -7 -75 -10 -125 -4 -49 -8
-106 -10 -125 -2 -19 -6 -71 -10 -115 -4 -44 -8 -93 -11 -110 -2 -16 -6 -55
-9 -85 -3 -30 -8 -71 -10 -90 -3 -19 -7 -57 -10 -85 -3 -27 -10 -84 -16 -125
-5 -42 -12 -94 -14 -115 -3 -22 -13 -87 -21 -145 -9 -58 -18 -118 -20 -135 -3
-28 -29 -186 -39 -245 -3 -14 -8 -45 -11 -70 -3 -25 -8 -47 -9 -50 -2 -3 -6
-26 -10 -50 -3 -25 -15 -92 -26 -150 -11 -58 -22 -116 -24 -130 -2 -14 -15
-81 -29 -150 -14 -69 -27 -136 -30 -150 -44 -227 -69 -319 -88 -331 -17 -11
-145 -12 -2610 -13 l-2348 -1 0 3765 0 3766 2473 -3 c1359 -1 2493 -4 2518 -6z"/>
</g>
</svg>
