<svg width="464" height="141" viewBox="0 0 464 141" fill="none" xmlns="http://www.w3.org/2000/svg">
<path d="M165.212 26.2109V71H154.415V26.2109H165.212ZM182.623 44.8525V53.1582H162.136V44.8525H182.623ZM184.376 26.2109V34.5474H162.136V26.2109H184.376ZM196.685 45.96V71H186.318V37.7158H196.008L196.685 45.96ZM206.528 37.4697L206.344 47.0981C205.934 47.0571 205.38 47.0059 204.683 46.9443C203.985 46.8828 203.401 46.8521 202.929 46.8521C201.719 46.8521 200.673 46.9956 199.792 47.2827C198.93 47.5493 198.213 47.9595 197.638 48.5132C197.085 49.0464 196.674 49.7231 196.408 50.5435C196.162 51.3638 196.049 52.3174 196.069 53.4043L194.193 52.1738C194.193 49.9385 194.408 47.9082 194.839 46.083C195.29 44.2373 195.926 42.6479 196.746 41.3149C197.567 39.9614 198.561 38.9258 199.73 38.208C200.899 37.4697 202.212 37.1006 203.668 37.1006C204.18 37.1006 204.683 37.1313 205.175 37.1929C205.688 37.2544 206.139 37.3467 206.528 37.4697ZM219.698 37.7158V71H209.3V37.7158H219.698ZM208.685 29.1333C208.685 27.6567 209.218 26.4468 210.285 25.5034C211.351 24.5601 212.736 24.0884 214.438 24.0884C216.14 24.0884 217.524 24.5601 218.591 25.5034C219.657 26.4468 220.19 27.6567 220.19 29.1333C220.19 30.6099 219.657 31.8198 218.591 32.7632C217.524 33.7065 216.14 34.1782 214.438 34.1782C212.736 34.1782 211.351 33.7065 210.285 32.7632C209.218 31.8198 208.685 30.6099 208.685 29.1333ZM240.866 71.6152C238.158 71.6152 235.739 71.1948 233.606 70.354C231.473 69.4927 229.668 68.3135 228.192 66.8164C226.736 65.3193 225.618 63.5967 224.839 61.6484C224.08 59.7002 223.7 57.6392 223.7 55.4653V54.2964C223.7 51.856 224.039 49.6001 224.716 47.5288C225.392 45.437 226.397 43.6118 227.73 42.0532C229.063 40.4946 230.735 39.2847 232.744 38.4233C234.754 37.5415 237.092 37.1006 239.758 37.1006C242.117 37.1006 244.229 37.48 246.095 38.2388C247.961 38.9976 249.54 40.0845 250.832 41.4995C252.145 42.9146 253.139 44.627 253.816 46.6367C254.513 48.6465 254.862 50.9023 254.862 53.4043V57.6187H227.669V51.1279H244.742V50.3281C244.762 49.2207 244.567 48.2773 244.157 47.498C243.767 46.7188 243.193 46.124 242.434 45.7139C241.676 45.3037 240.753 45.0986 239.666 45.0986C238.538 45.0986 237.605 45.3447 236.867 45.8369C236.149 46.3291 235.585 47.0059 235.175 47.8672C234.785 48.708 234.508 49.6821 234.344 50.7896C234.18 51.897 234.098 53.0659 234.098 54.2964V55.4653C234.098 56.6958 234.262 57.8135 234.59 58.8184C234.939 59.8232 235.431 60.6846 236.067 61.4023C236.723 62.0996 237.502 62.6431 238.405 63.0327C239.327 63.4224 240.373 63.6172 241.542 63.6172C242.957 63.6172 244.352 63.3506 245.726 62.8174C247.1 62.2842 248.279 61.4023 249.263 60.1719L253.97 65.7705C253.293 66.7344 252.329 67.6675 251.078 68.5698C249.848 69.4722 248.371 70.2104 246.649 70.7847C244.926 71.3384 242.998 71.6152 240.866 71.6152ZM267.909 44.8218V71H257.542V37.7158H267.263L267.909 44.8218ZM266.678 53.2197L264.248 53.2812C264.248 50.7383 264.556 48.4722 265.171 46.4829C265.786 44.4731 266.658 42.771 267.786 41.3765C268.913 39.9819 270.257 38.9258 271.815 38.208C273.394 37.4697 275.148 37.1006 277.076 37.1006C278.614 37.1006 280.018 37.3262 281.29 37.7773C282.582 38.2285 283.689 38.9565 284.612 39.9614C285.556 40.9663 286.273 42.2993 286.766 43.9604C287.278 45.6011 287.535 47.6313 287.535 50.0513V71H277.106V50.0205C277.106 48.6875 276.922 47.6724 276.553 46.9751C276.183 46.2573 275.65 45.7651 274.953 45.4985C274.256 45.2319 273.405 45.0986 272.4 45.0986C271.333 45.0986 270.431 45.3037 269.693 45.7139C268.954 46.124 268.36 46.6982 267.909 47.4365C267.478 48.1543 267.16 49.0054 266.955 49.9897C266.77 50.9741 266.678 52.0508 266.678 53.2197ZM311.071 63.3711V23.75H321.499V71H312.147L311.071 63.3711ZM290.645 54.7578V54.1118C290.645 51.5894 290.922 49.2925 291.476 47.2212C292.029 45.1294 292.85 43.335 293.937 41.8379C295.023 40.3203 296.377 39.1514 297.997 38.3311C299.617 37.5107 301.483 37.1006 303.596 37.1006C305.482 37.1006 307.133 37.5415 308.548 38.4233C309.963 39.2847 311.173 40.4946 312.178 42.0532C313.183 43.6118 314.003 45.437 314.639 47.5288C315.275 49.6001 315.757 51.8354 316.085 54.2349V55.0039C315.757 57.2598 315.275 59.3926 314.639 61.4023C314.003 63.3916 313.183 65.1553 312.178 66.6934C311.173 68.2314 309.953 69.4414 308.518 70.3232C307.103 71.1846 305.441 71.6152 303.534 71.6152C301.422 71.6152 299.556 71.1948 297.936 70.354C296.336 69.5132 294.993 68.334 293.906 66.8164C292.839 65.2988 292.029 63.5146 291.476 61.4639C290.922 59.4131 290.645 57.1777 290.645 54.7578ZM301.012 54.1118V54.7578C301.012 56.0088 301.094 57.1675 301.258 58.2339C301.422 59.3003 301.699 60.2437 302.088 61.064C302.499 61.8638 303.032 62.4893 303.688 62.9404C304.365 63.3916 305.195 63.6172 306.18 63.6172C307.513 63.6172 308.61 63.2993 309.471 62.6636C310.353 62.0278 310.999 61.1255 311.409 59.9565C311.84 58.7876 312.024 57.4136 311.963 55.8345V53.4043C312.004 52.0508 311.912 50.8613 311.686 49.8359C311.46 48.79 311.102 47.9185 310.609 47.2212C310.138 46.5239 309.533 46.001 308.794 45.6523C308.077 45.2832 307.226 45.0986 306.241 45.0986C305.277 45.0986 304.457 45.3242 303.78 45.7754C303.124 46.2266 302.591 46.8623 302.181 47.6826C301.771 48.4824 301.473 49.436 301.289 50.5435C301.104 51.6304 301.012 52.8198 301.012 54.1118ZM360.047 62.6943V71H327.624V62.6943H360.047ZM359.832 31.748L332.977 71H325.163V65.3091L352.326 26.2109H359.832V31.748ZM356.356 26.2109V34.5474H325.009V26.2109H356.356ZM361.158 54.6963V54.0503C361.158 51.6099 361.507 49.3643 362.204 47.3135C362.901 45.2422 363.926 43.4478 365.28 41.9302C366.633 40.4126 368.305 39.2334 370.294 38.3926C372.283 37.5312 374.58 37.1006 377.185 37.1006C379.81 37.1006 382.117 37.5312 384.106 38.3926C386.116 39.2334 387.798 40.4126 389.151 41.9302C390.505 43.4478 391.53 45.2422 392.227 47.3135C392.925 49.3643 393.273 51.6099 393.273 54.0503V54.6963C393.273 57.1162 392.925 59.3618 392.227 61.4331C391.53 63.4839 390.505 65.2783 389.151 66.8164C387.798 68.334 386.126 69.5132 384.137 70.354C382.148 71.1948 379.851 71.6152 377.246 71.6152C374.642 71.6152 372.335 71.1948 370.325 70.354C368.315 69.5132 366.633 68.334 365.28 66.8164C363.926 65.2783 362.901 63.4839 362.204 61.4331C361.507 59.3618 361.158 57.1162 361.158 54.6963ZM371.525 54.0503V54.6963C371.525 55.9473 371.617 57.1162 371.801 58.2031C371.986 59.29 372.294 60.2437 372.724 61.064C373.155 61.8638 373.739 62.4893 374.478 62.9404C375.216 63.3916 376.139 63.6172 377.246 63.6172C378.333 63.6172 379.236 63.3916 379.953 62.9404C380.692 62.4893 381.276 61.8638 381.707 61.064C382.137 60.2437 382.445 59.29 382.63 58.2031C382.814 57.1162 382.906 55.9473 382.906 54.6963V54.0503C382.906 52.8403 382.814 51.7021 382.63 50.6357C382.445 49.5488 382.137 48.5952 381.707 47.7749C381.276 46.9341 380.692 46.2778 379.953 45.8062C379.215 45.3345 378.292 45.0986 377.185 45.0986C376.098 45.0986 375.185 45.3345 374.447 45.8062C373.729 46.2778 373.155 46.9341 372.724 47.7749C372.294 48.5952 371.986 49.5488 371.801 50.6357C371.617 51.7021 371.525 52.8403 371.525 54.0503ZM406.72 44.8218V71H396.353V37.7158H406.074L406.72 44.8218ZM405.489 53.2197L403.059 53.2812C403.059 50.7383 403.367 48.4722 403.982 46.4829C404.597 44.4731 405.469 42.771 406.596 41.3765C407.724 39.9819 409.068 38.9258 410.626 38.208C412.205 37.4697 413.959 37.1006 415.887 37.1006C417.425 37.1006 418.829 37.3262 420.101 37.7773C421.393 38.2285 422.5 38.9565 423.423 39.9614C424.367 40.9663 425.084 42.2993 425.576 43.9604C426.089 45.6011 426.346 47.6313 426.346 50.0513V71H415.917V50.0205C415.917 48.6875 415.733 47.6724 415.364 46.9751C414.994 46.2573 414.461 45.7651 413.764 45.4985C413.067 45.2319 412.216 45.0986 411.211 45.0986C410.144 45.0986 409.242 45.3037 408.504 45.7139C407.765 46.124 407.171 46.6982 406.72 47.4365C406.289 48.1543 405.971 49.0054 405.766 49.9897C405.581 50.9741 405.489 52.0508 405.489 53.2197ZM446.867 71.6152C444.16 71.6152 441.74 71.1948 439.607 70.354C437.475 69.4927 435.67 68.3135 434.193 66.8164C432.737 65.3193 431.62 63.5967 430.84 61.6484C430.081 59.7002 429.702 57.6392 429.702 55.4653V54.2964C429.702 51.856 430.04 49.6001 430.717 47.5288C431.394 45.437 432.399 43.6118 433.732 42.0532C435.065 40.4946 436.736 39.2847 438.746 38.4233C440.756 37.5415 443.094 37.1006 445.76 37.1006C448.118 37.1006 450.23 37.48 452.097 38.2388C453.963 38.9976 455.542 40.0845 456.834 41.4995C458.146 42.9146 459.141 44.627 459.818 46.6367C460.515 48.6465 460.864 50.9023 460.864 53.4043V57.6187H433.67V51.1279H450.743V50.3281C450.764 49.2207 450.569 48.2773 450.159 47.498C449.769 46.7188 449.195 46.124 448.436 45.7139C447.677 45.3037 446.754 45.0986 445.667 45.0986C444.539 45.0986 443.606 45.3447 442.868 45.8369C442.15 46.3291 441.586 47.0059 441.176 47.8672C440.787 48.708 440.51 49.6821 440.346 50.7896C440.182 51.897 440.1 53.0659 440.1 54.2964V55.4653C440.1 56.6958 440.264 57.8135 440.592 58.8184C440.94 59.8232 441.433 60.6846 442.068 61.4023C442.725 62.0996 443.504 62.6431 444.406 63.0327C445.329 63.4224 446.375 63.6172 447.544 63.6172C448.959 63.6172 450.353 63.3506 451.727 62.8174C453.101 62.2842 454.281 61.4023 455.265 60.1719L459.972 65.7705C459.295 66.7344 458.331 67.6675 457.08 68.5698C455.85 69.4722 454.373 70.2104 452.65 70.7847C450.928 71.3384 449 71.6152 446.867 71.6152Z" fill="white"/>
<path fill-rule="evenodd" clip-rule="evenodd" d="M448 93H151V130H448V93ZM173.586 104.914H169.079V117H171.569V112.526H173.547L175.836 117H178.5V116.884L175.885 111.924C176.222 111.772 176.527 111.591 176.799 111.38C177.197 111.07 177.504 110.686 177.72 110.227C177.942 109.762 178.052 109.206 178.052 108.558C178.052 107.767 177.872 107.1 177.513 106.558C177.153 106.015 176.638 105.606 175.969 105.329C175.305 105.052 174.511 104.914 173.586 104.914ZM171.569 110.583H173.603C174.04 110.583 174.403 110.506 174.69 110.351C174.978 110.196 175.194 109.98 175.338 109.704C175.487 109.427 175.562 109.106 175.562 108.741C175.562 108.353 175.49 108.019 175.346 107.736C175.202 107.454 174.984 107.238 174.69 107.089C174.397 106.939 174.029 106.865 173.586 106.865H171.569V110.583ZM183.778 116.834C184.332 117.055 184.957 117.166 185.654 117.166C186.235 117.166 186.753 117.089 187.206 116.934C187.66 116.773 188.047 116.568 188.368 116.319C188.695 116.07 188.952 115.81 189.14 115.539L187.978 114.277C187.707 114.62 187.383 114.878 187.007 115.049C186.636 115.215 186.235 115.298 185.804 115.298C185.455 115.298 185.142 115.237 184.866 115.116C184.594 114.994 184.362 114.822 184.168 114.601C183.98 114.38 183.833 114.117 183.728 113.812C183.67 113.634 183.629 113.446 183.604 113.248H189.34V112.252C189.34 111.593 189.254 110.996 189.082 110.459C188.911 109.917 188.656 109.452 188.319 109.064C187.987 108.677 187.574 108.378 187.082 108.168C186.589 107.958 186.025 107.853 185.388 107.853C184.735 107.853 184.149 107.966 183.629 108.193C183.109 108.414 182.666 108.732 182.301 109.147C181.941 109.562 181.664 110.052 181.471 110.617C181.277 111.181 181.18 111.804 181.18 112.484V112.816C181.18 113.414 181.282 113.979 181.487 114.51C181.692 115.035 181.985 115.498 182.367 115.896C182.754 116.294 183.225 116.607 183.778 116.834ZM183.633 111.654C183.646 111.564 183.661 111.475 183.679 111.389C183.75 111.051 183.856 110.758 183.994 110.509C184.138 110.26 184.323 110.066 184.55 109.928C184.777 109.789 185.048 109.72 185.364 109.72C185.734 109.72 186.039 109.798 186.277 109.953C186.515 110.108 186.692 110.318 186.808 110.583C186.93 110.844 186.991 111.14 186.991 111.472V111.654H183.633ZM197.344 116.157C197.259 116.255 197.166 116.351 197.066 116.444C196.834 116.654 196.554 116.828 196.228 116.967C195.901 117.1 195.514 117.166 195.066 117.166C194.496 117.166 193.978 117.053 193.513 116.826C193.054 116.593 192.689 116.275 192.418 115.871C192.152 115.462 192.019 114.997 192.019 114.477C192.019 114.006 192.108 113.588 192.285 113.223C192.462 112.858 192.722 112.551 193.065 112.302C193.414 112.047 193.848 111.856 194.368 111.729C194.888 111.596 195.492 111.53 196.178 111.53H197.249V110.974C197.249 110.686 197.202 110.44 197.108 110.235C197.013 110.025 196.867 109.861 196.668 109.745C196.474 109.629 196.222 109.571 195.912 109.571C195.647 109.571 195.417 109.618 195.223 109.712C195.03 109.8 194.88 109.931 194.775 110.102C194.67 110.268 194.617 110.465 194.617 110.691H192.227C192.227 110.31 192.315 109.947 192.492 109.604C192.669 109.261 192.927 108.959 193.264 108.699C193.602 108.434 194.003 108.226 194.468 108.077C194.938 107.927 195.464 107.853 196.045 107.853C196.742 107.853 197.362 107.969 197.904 108.201C198.447 108.434 198.873 108.782 199.183 109.247C199.498 109.712 199.656 110.293 199.656 110.99V114.833C199.656 115.326 199.686 115.73 199.747 116.045C199.808 116.355 199.897 116.626 200.013 116.859V117H197.597C197.489 116.772 197.404 116.491 197.344 116.157ZM197.249 114.462C197.218 114.518 197.182 114.576 197.141 114.634C196.997 114.845 196.792 115.022 196.526 115.166C196.261 115.309 195.948 115.381 195.588 115.381C195.351 115.381 195.143 115.337 194.966 115.249C194.789 115.154 194.653 115.027 194.559 114.867C194.465 114.701 194.418 114.515 194.418 114.311C194.418 114.106 194.451 113.918 194.518 113.746C194.59 113.575 194.7 113.425 194.85 113.298C194.999 113.165 195.19 113.063 195.422 112.991C195.655 112.919 195.929 112.883 196.244 112.883H197.249V114.462ZM205.722 117V104.25H203.323V117H205.722ZM211.921 117V108.019H209.522V117H211.921ZM209.738 104.814C209.494 105.041 209.373 105.329 209.373 105.678C209.373 106.026 209.494 106.314 209.738 106.541C209.981 106.768 210.308 106.881 210.717 106.881C211.121 106.881 211.445 106.768 211.689 106.541C211.938 106.314 212.062 106.026 212.062 105.678C212.062 105.329 211.938 105.041 211.689 104.814C211.445 104.588 211.121 104.474 210.717 104.474C210.308 104.474 209.981 104.588 209.738 104.814ZM222.744 117V115.132H218.29L222.611 109.396V108.019H221.764H220.984H215.414V109.895H219.569L215.281 115.581V117H215.92H216.883H222.744ZM228.071 116.834C228.624 117.055 229.25 117.166 229.947 117.166C230.528 117.166 231.046 117.089 231.499 116.934C231.953 116.773 232.34 116.568 232.661 116.319C232.988 116.07 233.245 115.81 233.433 115.539L232.271 114.277C232 114.62 231.676 114.878 231.3 115.049C230.929 115.215 230.528 115.298 230.096 115.298C229.748 115.298 229.435 115.237 229.158 115.116C228.887 114.994 228.655 114.822 228.461 114.601C228.273 114.38 228.126 114.117 228.021 113.812C227.963 113.634 227.922 113.446 227.897 113.248H233.633V112.252C233.633 111.593 233.547 110.996 233.375 110.459C233.204 109.917 232.949 109.452 232.612 109.064C232.28 108.677 231.867 108.378 231.375 108.168C230.882 107.958 230.318 107.853 229.681 107.853C229.028 107.853 228.442 107.966 227.922 108.193C227.401 108.414 226.959 108.732 226.594 109.147C226.234 109.562 225.957 110.052 225.763 110.617C225.57 111.181 225.473 111.804 225.473 112.484V112.816C225.473 113.414 225.575 113.979 225.78 114.51C225.985 115.035 226.278 115.498 226.66 115.896C227.047 116.294 227.518 116.607 228.071 116.834ZM227.926 111.654C227.939 111.564 227.954 111.475 227.971 111.389C228.043 111.051 228.149 110.758 228.287 110.509C228.431 110.26 228.616 110.066 228.843 109.928C229.07 109.789 229.341 109.72 229.657 109.72C230.027 109.72 230.332 109.798 230.57 109.953C230.808 110.108 230.985 110.318 231.101 110.583C231.223 110.844 231.283 111.14 231.283 111.472V111.654H227.926ZM244.888 117.028L241.731 108.019H244.296L245.987 113.661L247.674 108.019H250.239L246.628 118.353C246.551 118.58 246.446 118.823 246.313 119.083C246.186 119.344 246.011 119.59 245.79 119.822C245.574 120.06 245.3 120.254 244.968 120.403C244.642 120.553 244.24 120.627 243.765 120.627C243.538 120.627 243.352 120.614 243.208 120.586C243.065 120.558 242.893 120.52 242.694 120.47V118.718H242.885C242.951 118.724 243.015 118.727 243.076 118.727C243.391 118.727 243.648 118.691 243.848 118.619C244.047 118.547 244.207 118.436 244.329 118.287C244.451 118.143 244.548 117.955 244.62 117.722L244.888 117.028ZM252.379 112.426V112.601C252.379 113.254 252.473 113.86 252.661 114.418C252.849 114.972 253.123 115.456 253.483 115.871C253.848 116.281 254.294 116.599 254.82 116.826C255.351 117.053 255.957 117.166 256.637 117.166C257.318 117.166 257.921 117.053 258.447 116.826C258.973 116.599 259.415 116.281 259.775 115.871C260.14 115.456 260.417 114.972 260.605 114.418C260.793 113.86 260.887 113.254 260.887 112.601V112.426C260.887 111.768 260.793 111.162 260.605 110.608C260.417 110.049 260.14 109.565 259.775 109.156C259.415 108.746 258.97 108.428 258.439 108.201C257.907 107.969 257.301 107.853 256.621 107.853C255.94 107.853 255.337 107.969 254.811 108.201C254.286 108.428 253.843 108.746 253.483 109.156C253.123 109.565 252.849 110.049 252.661 110.608C252.473 111.162 252.379 111.768 252.379 112.426ZM254.77 112.601V112.426C254.77 112.061 254.803 111.718 254.869 111.397C254.936 111.07 255.041 110.783 255.185 110.534C255.334 110.279 255.525 110.08 255.758 109.936C255.995 109.792 256.283 109.72 256.621 109.72C256.958 109.72 257.246 109.792 257.484 109.936C257.722 110.08 257.913 110.279 258.057 110.534C258.206 110.783 258.314 111.07 258.381 111.397C258.453 111.718 258.488 112.061 258.488 112.426V112.601C258.488 112.977 258.453 113.328 258.381 113.655C258.314 113.981 258.209 114.269 258.065 114.518C257.921 114.762 257.73 114.952 257.492 115.091C257.254 115.229 256.969 115.298 256.637 115.298C256.294 115.298 256.004 115.229 255.766 115.091C255.528 114.952 255.334 114.762 255.185 114.518C255.041 114.269 254.936 113.981 254.869 113.655C254.803 113.328 254.77 112.977 254.77 112.601ZM269.449 116.067C269.183 116.4 268.854 116.664 268.464 116.859C268.044 117.064 267.549 117.166 266.979 117.166C266.541 117.166 266.137 117.105 265.767 116.983C265.401 116.856 265.086 116.66 264.82 116.394C264.56 116.123 264.355 115.777 264.206 115.356C264.062 114.93 263.99 114.418 263.99 113.821V108.019H266.381V113.837C266.381 114.103 266.411 114.327 266.472 114.51C266.539 114.692 266.63 114.842 266.746 114.958C266.862 115.074 266.998 115.157 267.153 115.207C267.313 115.257 267.49 115.282 267.684 115.282C268.177 115.282 268.564 115.182 268.846 114.983C269.075 114.825 269.249 114.622 269.369 114.373V108.019H271.76V117H269.51L269.449 116.067ZM277.677 111.076V117H275.286V108.019H277.535L277.615 109.119C277.637 109.078 277.661 109.038 277.685 108.998C277.912 108.633 278.188 108.351 278.515 108.151C278.841 107.952 279.215 107.853 279.636 107.853C279.768 107.853 279.904 107.864 280.042 107.886C280.181 107.902 280.294 107.927 280.383 107.96L280.341 110.177C280.225 110.16 280.084 110.146 279.918 110.135C279.757 110.119 279.611 110.11 279.478 110.11C279.14 110.11 278.847 110.155 278.598 110.243C278.354 110.326 278.15 110.451 277.984 110.617C277.857 110.747 277.755 110.901 277.677 111.076ZM293.636 115.132C293.409 115.243 293.149 115.298 292.855 115.298C292.501 115.298 292.213 115.226 291.992 115.083C291.771 114.939 291.596 114.742 291.469 114.493C291.347 114.244 291.264 113.959 291.22 113.638C291.176 113.317 291.154 112.982 291.154 112.634V112.393C291.154 112.044 291.176 111.712 291.22 111.397C291.27 111.076 291.356 110.791 291.477 110.542C291.599 110.287 291.771 110.088 291.992 109.944C292.213 109.795 292.498 109.72 292.847 109.72C293.174 109.72 293.447 109.795 293.669 109.944C293.896 110.088 294.067 110.282 294.184 110.525C294.305 110.769 294.369 111.04 294.374 111.339H296.624C296.618 110.625 296.455 110.008 296.134 109.488C295.819 108.962 295.382 108.558 294.823 108.276C294.269 107.994 293.625 107.853 292.889 107.853C292.197 107.853 291.594 107.969 291.079 108.201C290.564 108.434 290.135 108.757 289.792 109.172C289.449 109.582 289.192 110.063 289.02 110.617C288.849 111.165 288.763 111.757 288.763 112.393V112.634C288.763 113.265 288.849 113.857 289.02 114.41C289.192 114.958 289.449 115.439 289.792 115.854C290.135 116.264 290.564 116.585 291.079 116.817C291.599 117.05 292.208 117.166 292.905 117.166C293.597 117.166 294.222 117.028 294.781 116.751C295.34 116.469 295.786 116.084 296.118 115.597C296.45 115.105 296.618 114.543 296.624 113.912H294.374C294.369 114.194 294.3 114.441 294.167 114.651C294.04 114.856 293.863 115.016 293.636 115.132ZM299.328 112.426V112.601C299.328 113.254 299.422 113.86 299.611 114.418C299.799 114.972 300.073 115.456 300.432 115.871C300.798 116.281 301.243 116.599 301.769 116.826C302.3 117.053 302.906 117.166 303.587 117.166C304.267 117.166 304.87 117.053 305.396 116.826C305.922 116.599 306.365 116.281 306.724 115.871C307.09 115.456 307.366 114.972 307.554 114.418C307.743 113.86 307.837 113.254 307.837 112.601V112.426C307.837 111.768 307.743 111.162 307.554 110.608C307.366 110.049 307.09 109.565 306.724 109.156C306.365 108.746 305.919 108.428 305.388 108.201C304.857 107.969 304.251 107.853 303.57 107.853C302.889 107.853 302.286 107.969 301.76 108.201C301.235 108.428 300.792 108.746 300.432 109.156C300.073 109.565 299.799 110.049 299.611 110.608C299.422 111.162 299.328 111.768 299.328 112.426ZM301.719 112.601V112.426C301.719 112.061 301.752 111.718 301.819 111.397C301.885 111.07 301.99 110.783 302.134 110.534C302.283 110.279 302.474 110.08 302.707 109.936C302.945 109.792 303.232 109.72 303.57 109.72C303.908 109.72 304.195 109.792 304.433 109.936C304.671 110.08 304.862 110.279 305.006 110.534C305.155 110.783 305.263 111.07 305.33 111.397C305.402 111.718 305.438 112.061 305.438 112.426V112.601C305.438 112.977 305.402 113.328 305.33 113.655C305.263 113.981 305.158 114.269 305.014 114.518C304.87 114.762 304.68 114.952 304.442 115.091C304.204 115.229 303.919 115.298 303.587 115.298C303.244 115.298 302.953 115.229 302.715 115.091C302.477 114.952 302.283 114.762 302.134 114.518C301.99 114.269 301.885 113.981 301.819 113.655C301.752 113.328 301.719 112.977 301.719 112.601ZM313.396 110.63V117H310.998V108.019H313.247L313.33 109.047C313.623 108.674 313.98 108.384 314.401 108.176C314.838 107.96 315.344 107.853 315.92 107.853C316.318 107.853 316.684 107.913 317.016 108.035C317.348 108.151 317.633 108.337 317.871 108.591C318.043 108.768 318.188 108.983 318.304 109.237C318.344 109.178 318.385 109.121 318.427 109.064C318.72 108.683 319.083 108.387 319.514 108.176C319.946 107.96 320.444 107.853 321.008 107.853C321.44 107.853 321.833 107.916 322.187 108.043C322.541 108.165 322.843 108.362 323.092 108.633C323.346 108.898 323.54 109.247 323.673 109.679C323.811 110.11 323.88 110.639 323.88 111.264V117H321.481V111.264C321.481 110.849 321.426 110.534 321.315 110.318C321.21 110.097 321.055 109.944 320.851 109.861C320.651 109.773 320.413 109.729 320.137 109.729C319.849 109.729 319.597 109.787 319.381 109.903C319.166 110.014 318.986 110.168 318.842 110.368C318.759 110.482 318.688 110.608 318.629 110.745C318.633 110.83 318.634 110.917 318.634 111.007V117H316.244V111.272C316.244 110.863 316.188 110.548 316.078 110.326C315.967 110.105 315.809 109.95 315.604 109.861C315.405 109.773 315.165 109.729 314.882 109.729C314.572 109.729 314.301 109.792 314.069 109.919C313.842 110.047 313.654 110.224 313.504 110.451C313.466 110.508 313.43 110.567 313.396 110.63ZM329.822 110.63V117H327.423V108.019H329.673L329.755 109.047C330.048 108.674 330.405 108.384 330.826 108.176C331.264 107.96 331.77 107.853 332.346 107.853C332.744 107.853 333.109 107.913 333.441 108.035C333.773 108.151 334.058 108.337 334.296 108.591C334.469 108.768 334.613 108.983 334.73 109.237C334.769 109.178 334.81 109.121 334.852 109.064C335.146 108.683 335.508 108.387 335.94 108.176C336.371 107.96 336.869 107.853 337.434 107.853C337.866 107.853 338.258 107.916 338.613 108.043C338.967 108.165 339.268 108.362 339.517 108.633C339.772 108.898 339.966 109.247 340.098 109.679C340.237 110.11 340.306 110.639 340.306 111.264V117H337.907V111.264C337.907 110.849 337.852 110.534 337.741 110.318C337.636 110.097 337.481 109.944 337.276 109.861C337.077 109.773 336.839 109.729 336.562 109.729C336.275 109.729 336.023 109.787 335.807 109.903C335.591 110.014 335.411 110.168 335.267 110.368C335.185 110.482 335.114 110.608 335.055 110.745C335.058 110.83 335.06 110.917 335.06 111.007V117H332.669V111.272C332.669 110.863 332.614 110.548 332.503 110.326C332.393 110.105 332.235 109.95 332.03 109.861C331.831 109.773 331.59 109.729 331.308 109.729C330.998 109.729 330.727 109.792 330.494 109.919C330.268 110.047 330.079 110.224 329.93 110.451C329.891 110.508 329.855 110.567 329.822 110.63ZM349.249 116.067C348.983 116.4 348.655 116.664 348.265 116.859C347.844 117.064 347.349 117.166 346.779 117.166C346.342 117.166 345.938 117.105 345.567 116.983C345.202 116.856 344.886 116.66 344.621 116.394C344.361 116.123 344.156 115.777 344.006 115.356C343.863 114.93 343.791 114.418 343.791 113.821V108.019H346.181V113.837C346.181 114.103 346.212 114.327 346.273 114.51C346.339 114.692 346.43 114.842 346.546 114.958C346.663 115.074 346.798 115.157 346.953 115.207C347.114 115.257 347.291 115.282 347.484 115.282C347.977 115.282 348.364 115.182 348.647 114.983C348.875 114.825 349.049 114.622 349.17 114.373V108.019H351.56V117H349.311L349.249 116.067ZM357.427 110.629V117H355.037V108.019H357.278L357.361 109.092C357.378 109.072 357.394 109.051 357.411 109.031C357.72 108.649 358.088 108.359 358.515 108.16C358.946 107.955 359.428 107.853 359.959 107.853C360.379 107.853 360.764 107.913 361.113 108.035C361.461 108.157 361.76 108.351 362.009 108.616C362.264 108.882 362.457 109.233 362.59 109.67C362.729 110.108 362.798 110.642 362.798 111.272V117H360.391V111.264C360.391 110.866 360.335 110.556 360.225 110.334C360.114 110.113 359.951 109.958 359.735 109.87C359.524 109.776 359.264 109.729 358.954 109.729C358.634 109.729 358.354 109.792 358.116 109.919C357.884 110.047 357.69 110.224 357.535 110.451C357.497 110.507 357.461 110.567 357.427 110.629ZM368.839 117V108.019H366.44V117H368.839ZM366.656 104.814C366.412 105.041 366.291 105.329 366.291 105.678C366.291 106.026 366.412 106.314 366.656 106.541C366.899 106.768 367.226 106.881 367.635 106.881C368.039 106.881 368.363 106.768 368.607 106.541C368.856 106.314 368.98 106.026 368.98 105.678C368.98 105.329 368.856 105.041 368.607 104.814C368.363 104.588 368.039 104.474 367.635 104.474C367.226 104.474 366.899 104.588 366.656 104.814ZM377.005 115.132C376.778 115.243 376.518 115.298 376.225 115.298C375.871 115.298 375.583 115.226 375.362 115.083C375.14 114.939 374.966 114.742 374.839 114.493C374.717 114.244 374.634 113.959 374.59 113.638C374.546 113.317 374.523 112.982 374.523 112.634V112.393C374.523 112.044 374.546 111.712 374.59 111.397C374.64 111.076 374.725 110.791 374.847 110.542C374.969 110.287 375.14 110.088 375.362 109.944C375.583 109.795 375.868 109.72 376.217 109.72C376.543 109.72 376.817 109.795 377.039 109.944C377.265 110.088 377.437 110.282 377.553 110.525C377.675 110.769 377.739 111.04 377.744 111.339H379.994C379.988 110.625 379.825 110.008 379.504 109.488C379.188 108.962 378.751 108.558 378.192 108.276C377.639 107.994 376.994 107.853 376.258 107.853C375.567 107.853 374.963 107.969 374.449 108.201C373.934 108.434 373.505 108.757 373.162 109.172C372.819 109.582 372.562 110.063 372.39 110.617C372.219 111.165 372.133 111.757 372.133 112.393V112.634C372.133 113.265 372.219 113.857 372.39 114.41C372.562 114.958 372.819 115.439 373.162 115.854C373.505 116.264 373.934 116.585 374.449 116.817C374.969 117.05 375.578 117.166 376.275 117.166C376.967 117.166 377.592 117.028 378.151 116.751C378.71 116.469 379.155 116.084 379.487 115.597C379.819 115.105 379.988 114.543 379.994 113.912H377.744C377.739 114.194 377.669 114.441 377.537 114.651C377.409 114.856 377.232 115.016 377.005 115.132ZM388.023 116.157C387.938 116.255 387.845 116.351 387.745 116.444C387.512 116.654 387.233 116.828 386.907 116.967C386.58 117.1 386.193 117.166 385.744 117.166C385.174 117.166 384.657 117.053 384.192 116.826C383.733 116.593 383.368 116.275 383.096 115.871C382.831 115.462 382.698 114.997 382.698 114.477C382.698 114.006 382.787 113.588 382.964 113.223C383.141 112.858 383.401 112.551 383.744 112.302C384.093 112.047 384.527 111.856 385.047 111.729C385.567 111.596 386.171 111.53 386.857 111.53H387.928V110.974C387.928 110.686 387.88 110.44 387.786 110.235C387.692 110.025 387.546 109.861 387.346 109.745C387.153 109.629 386.901 109.571 386.591 109.571C386.325 109.571 386.096 109.618 385.902 109.712C385.708 109.8 385.559 109.931 385.454 110.102C385.349 110.268 385.296 110.465 385.296 110.691H382.906C382.906 110.31 382.994 109.947 383.171 109.604C383.348 109.261 383.606 108.959 383.943 108.699C384.281 108.434 384.682 108.226 385.147 108.077C385.617 107.927 386.143 107.853 386.724 107.853C387.421 107.853 388.041 107.969 388.583 108.201C389.126 108.434 389.552 108.782 389.862 109.247C390.177 109.712 390.335 110.293 390.335 110.99V114.833C390.335 115.326 390.365 115.73 390.426 116.045C390.487 116.355 390.575 116.626 390.692 116.859V117H388.276C388.167 116.772 388.083 116.491 388.023 116.157ZM387.928 114.462C387.897 114.518 387.861 114.576 387.82 114.634C387.676 114.845 387.471 115.022 387.205 115.166C386.94 115.309 386.627 115.381 386.267 115.381C386.029 115.381 385.822 115.337 385.645 115.249C385.468 115.154 385.332 115.027 385.238 114.867C385.144 114.701 385.097 114.515 385.097 114.311C385.097 114.106 385.13 113.918 385.197 113.746C385.269 113.575 385.379 113.425 385.529 113.298C385.678 113.165 385.869 113.063 386.101 112.991C386.334 112.919 386.608 112.883 386.923 112.883H387.928V114.462ZM398.277 109.712V108.019H396.733V105.802H394.342V108.019H393.047V109.712H394.342V114.535C394.342 115.166 394.448 115.675 394.658 116.062C394.868 116.449 395.167 116.732 395.554 116.909C395.947 117.08 396.407 117.166 396.932 117.166C397.22 117.166 397.483 117.147 397.721 117.108C397.959 117.069 398.18 117.017 398.385 116.95L398.377 115.19C398.294 115.207 398.191 115.224 398.069 115.24C397.953 115.251 397.82 115.257 397.671 115.257C397.461 115.257 397.286 115.232 397.148 115.182C397.01 115.127 396.905 115.03 396.833 114.892C396.766 114.753 396.733 114.554 396.733 114.294V109.712H398.277ZM403.862 117V108.019H401.463V117H403.862ZM401.679 104.814C401.435 105.041 401.313 105.329 401.313 105.678C401.313 106.026 401.435 106.314 401.679 106.541C401.922 106.768 402.249 106.881 402.658 106.881C403.062 106.881 403.386 106.768 403.629 106.541C403.878 106.314 404.003 106.026 404.003 105.678C404.003 105.329 403.878 105.041 403.629 104.814C403.386 104.588 403.062 104.474 402.658 104.474C402.249 104.474 401.922 104.588 401.679 104.814ZM407.155 112.426V112.601C407.155 113.254 407.25 113.86 407.438 114.418C407.626 114.972 407.9 115.456 408.259 115.871C408.625 116.281 409.07 116.599 409.596 116.826C410.127 117.053 410.733 117.166 411.414 117.166C412.094 117.166 412.698 117.053 413.223 116.826C413.749 116.599 414.192 116.281 414.551 115.871C414.917 115.456 415.193 114.972 415.382 114.418C415.57 113.86 415.664 113.254 415.664 112.601V112.426C415.664 111.768 415.57 111.162 415.382 110.608C415.193 110.049 414.917 109.565 414.551 109.156C414.192 108.746 413.746 108.428 413.215 108.201C412.684 107.969 412.078 107.853 411.397 107.853C410.716 107.853 410.113 107.969 409.588 108.201C409.062 108.428 408.619 108.746 408.259 109.156C407.9 109.565 407.626 110.049 407.438 110.608C407.25 111.162 407.155 111.768 407.155 112.426ZM409.546 112.601V112.426C409.546 112.061 409.579 111.718 409.646 111.397C409.712 111.07 409.817 110.783 409.961 110.534C410.111 110.279 410.301 110.08 410.534 109.936C410.772 109.792 411.06 109.72 411.397 109.72C411.735 109.72 412.022 109.792 412.26 109.936C412.498 110.08 412.689 110.279 412.833 110.534C412.983 110.783 413.091 111.07 413.157 111.397C413.229 111.718 413.265 112.061 413.265 112.426V112.601C413.265 112.977 413.229 113.328 413.157 113.655C413.091 113.981 412.985 114.269 412.841 114.518C412.698 114.762 412.507 114.952 412.269 115.091C412.031 115.229 411.746 115.298 411.414 115.298C411.071 115.298 410.78 115.229 410.542 115.091C410.304 114.952 410.111 114.762 409.961 114.518C409.817 114.269 409.712 113.981 409.646 113.655C409.579 113.328 409.546 112.977 409.546 112.601ZM421.174 110.629V117H418.783V108.019H421.024L421.108 109.092C421.124 109.072 421.141 109.051 421.157 109.031C421.467 108.649 421.835 108.359 422.261 108.16C422.693 107.955 423.174 107.853 423.706 107.853C424.126 107.853 424.511 107.913 424.859 108.035C425.208 108.157 425.507 108.351 425.756 108.616C426.01 108.882 426.204 109.233 426.337 109.67C426.475 110.108 426.544 110.642 426.544 111.272V117H424.137V111.264C424.137 110.866 424.082 110.556 423.971 110.334C423.861 110.113 423.697 109.958 423.481 109.87C423.271 109.776 423.011 109.729 422.701 109.729C422.38 109.729 422.101 109.792 421.863 109.919C421.63 110.047 421.437 110.224 421.282 110.451C421.243 110.507 421.207 110.567 421.174 110.629Z" fill="white"/>
<path d="M67.5 0C54.1498 0 41.0993 4.13475 29.999 11.8814C18.8987 19.628 10.2471 30.6386 5.13816 43.5208C0.0292476 56.403 -1.30748 70.5782 1.29703 84.2539C3.90153 97.9296 10.3303 110.491 19.7703 120.351C29.2104 130.21 41.2377 136.925 54.3314 139.645C67.4251 142.366 80.9969 140.969 93.331 135.634C105.665 130.297 116.207 121.261 123.624 109.668C131.041 98.0739 135 84.4436 135 70.5C135 51.8023 127.889 33.8703 115.23 20.6489C102.571 7.42769 85.4022 0 67.5 0ZM67.5 132.188C55.8186 132.188 44.3994 128.57 34.6867 121.791C24.9739 115.013 17.4037 105.379 12.9334 94.1066C8.46309 82.8349 7.29344 70.4314 9.57242 58.4653C11.8513 46.4992 17.4765 35.5075 25.7365 26.8804C33.9966 18.2532 44.5205 12.378 55.9775 9.9978C67.4343 7.61759 79.31 8.83923 90.1021 13.5082C100.895 18.1771 110.119 26.0838 116.609 36.2283C123.099 46.3727 126.563 58.2993 126.563 70.5C126.563 86.8605 120.34 102.551 109.263 114.12C98.1873 125.688 83.1643 132.188 67.5 132.188Z" fill="white"/>
<path d="M103.617 70.1308C103.6 64.2611 102.991 58.4089 101.802 52.6693H117C116.218 50.2751 115.272 47.9411 114.172 45.6847H100.029C97.3699 36.5001 93.2464 27.8393 87.8278 20.0598C84.3657 18.5546 80.7561 17.4422 77.0625 16.7421C84.4854 24.9893 90.0888 34.8047 93.4853 45.51H70.7295V16H64.3972V45.5537H41.6418C45.0449 34.829 50.663 24.9979 58.1067 16.7421C54.4286 17.4305 50.8332 18.5282 47.3834 20.0162C41.9435 27.7631 37.7914 36.394 35.0981 45.5537H20.8708C19.7502 47.8513 18.7908 50.2293 18 52.6693H33.3249C32.1357 58.4089 31.5272 64.2611 31.5096 70.1308C31.5213 76.5515 32.2293 82.9501 33.6205 89.2077H18.6755C19.5489 91.6542 20.593 94.0328 21.7996 96.3231H35.4358C38.0205 104.686 41.8521 112.581 46.7924 119.722C50.3301 121.291 54.0258 122.448 57.8111 123.17C50.9209 115.399 45.622 106.267 42.2329 96.3231H64.4396V124H70.7719V96.3231H92.8939C89.4932 106.271 84.1796 115.403 77.2737 123.17C81.0767 122.422 84.7869 121.236 88.3344 119.635C93.2667 112.52 97.0985 104.656 99.6911 96.3231H113.201C114.402 94.0747 115.446 91.7406 116.325 89.3385H101.337C102.795 83.0453 103.56 76.6017 103.617 70.1308ZM64.3972 89.2077H40.1642C37.192 77.1935 37.0617 64.6155 39.7843 52.5383H64.3972V89.2077ZM94.9627 89.2077H70.7295V52.6693H95.3428C96.5556 58.4042 97.1501 64.2605 97.1157 70.1308C97.1501 76.5566 96.4273 82.9628 94.9627 89.2077Z" fill="white"/>
</svg>
