<svg width="8692" height="2883" viewBox="0 0 8692 2883" fill="none" xmlns="http://www.w3.org/2000/svg">
<path fill-rule="evenodd" clip-rule="evenodd" d="M1321.82 0.572267C1222.66 5.96927 1129.86 20.5963 1038.82 45.1793C693.35 138.454 396.936 364.976 208.499 679.714C96.2153 867.258 26.1213 1082.55 5.8853 1302.05C1.6713 1347.76 0.639296 1369.63 0.103296 1424.59C-0.851704 1522.54 4.7423 1596.88 19.9273 1688.05C63.9273 1952.21 179.684 2201.27 351.135 2400.67C397.643 2454.76 455.939 2512.79 508.815 2557.63C724.933 2740.9 989.17 2852.48 1266.32 2877.49C1311.55 2881.57 1324.16 2882.05 1386.82 2882.05C1449.47 2882.05 1462.08 2881.57 1507.32 2877.49C1700.16 2860.08 1888.15 2800.49 2058.17 2702.86C2281.41 2574.67 2465.75 2385.37 2592.6 2154.05C2607.08 2127.65 2633.59 2074.24 2645.15 2048.19C2722.04 1874.87 2764.32 1694.48 2772.8 1503.55C2774.92 1455.61 2773.87 1384.93 2770.29 1335.05C2738.28 889.397 2511.7 486.69 2153.94 239.614C2030.34 154.247 1889.32 88.0613 1746.82 48.5323C1655.31 23.1493 1570.9 8.83627 1469.32 1.47727C1450.41 0.107267 1342.51 -0.554733 1321.82 0.572267ZM1443.82 181.572C1652.22 192.409 1850.24 256.391 2026.32 369.783C2078.49 403.382 2127.88 440.984 2176.82 484.372C2196.9 502.179 2242.84 547.403 2262.31 568.545C2329.56 641.548 2388.53 723.224 2437.75 811.545C2450.34 834.135 2477.52 888.775 2488.25 913.045C2575.76 1111.11 2612.7 1327.58 2595.77 1543.05C2575.42 1801.88 2479.6 2046.31 2320.09 2246.27C2290 2283.99 2267.09 2309.41 2227.38 2349.11C2192.27 2384.22 2177.36 2397.97 2146.24 2423.95C1956.25 2582.57 1724.86 2678 1481.82 2697.98C1422.22 2702.88 1351.88 2702.88 1291.82 2697.98C937.083 2669.05 611.666 2479.01 403.398 2179.16C276.57 1996.55 198.824 1781.26 178.921 1557.55C174.943 1512.82 174.318 1497.01 174.318 1441.05C174.318 1385.13 174.938 1369.42 178.913 1324.55C207.818 998.243 358.829 695.598 599.315 482.009C663.99 424.568 739.363 371.169 815.815 328.627C837.944 316.313 886.993 291.888 909.815 281.816C1043.52 222.816 1183.36 189.227 1326.82 181.658C1349.61 180.455 1421.33 180.402 1443.82 181.572ZM1320.82 628.545V933.545H1087.87H854.915L864.772 904.295C933.542 700.221 1039.85 514.562 1179.16 355.228C1186.77 346.52 1192.84 339.234 1192.64 339.035C1192 338.399 1159.03 345.393 1136.32 350.98C1086.28 363.29 1039.47 378.575 989.989 398.767C969.561 407.102 974.087 402.368 946.343 444.416C848.275 593.047 773.801 752.738 722.312 924.795L719.694 933.545H573.767H427.84L424.187 940.795C415.063 958.904 395.984 1003.93 385.215 1032.77C379.987 1046.77 368.815 1079.42 368.815 1080.7C368.815 1081.16 439.465 1081.55 525.815 1081.55C612.165 1081.55 682.815 1081.86 682.815 1082.24C682.815 1082.62 681.258 1090.83 679.354 1100.49C662.919 1183.87 652.489 1271.44 647.664 1366.55C646.111 1397.16 646.108 1486.29 647.658 1517.55C652.741 1619.99 663.269 1706.07 682.356 1801.25C685.909 1818.97 688.815 1833.7 688.815 1834C688.815 1834.3 619.965 1834.55 535.815 1834.55C448.497 1834.55 382.815 1834.92 382.815 1835.42C382.815 1836.75 394.676 1867.91 402.206 1886.37C411.844 1909.98 420.328 1928.75 434.056 1956.8L446.168 1981.55H586.281H726.394L734.207 2005.8C783.752 2159.57 852.847 2303.06 943.663 2440.78L959.315 2464.52L969.815 2469.14C1007.88 2485.89 1055.88 2503.04 1098.53 2515.14C1129.39 2523.89 1181.84 2536.15 1185.13 2535.38C1186.02 2535.17 1180.97 2528.54 1171.56 2517.55C1052.14 2378.08 956.383 2217.14 889.924 2044.22C880.629 2020.03 867.815 1984.28 867.815 1982.53C867.815 1981.89 947.249 1981.55 1094.82 1981.55H1321.82V2267.55V2553.55H1387.32H1452.82V2267.55V1981.55H1679.32C1823.14 1981.55 1905.82 1981.9 1905.82 1982.5C1905.82 1983.03 1902.68 1992.26 1898.85 2003.02C1831.52 2192.06 1729.66 2368.17 1601.56 2517.05C1590.33 2530.1 1586.54 2535.13 1587.77 2535.34C1589.67 2535.67 1614.85 2530.26 1636.32 2524.91C1689.32 2511.7 1741.08 2494.22 1793.53 2471.83L1813.74 2463.2L1830.65 2437.62C1919.12 2303.82 1986.14 2165.8 2036.44 2013.8L2047.11 1981.55H2185.73H2324.35L2332.51 1965.8C2342.41 1946.68 2354.45 1921.04 2364.55 1897.55C2373.54 1876.64 2387.82 1840.12 2387.82 1838.03C2387.82 1836.72 2369.43 1836.55 2234.25 1836.55C2088.46 1836.55 2080.71 1836.46 2081.21 1834.8C2082.22 1831.48 2087.68 1806.01 2091.67 1786.05C2123.03 1628.93 2133.5 1475.86 2123.27 1324.05C2118.36 1251.07 2108.67 1176.13 2094.82 1103.84C2092.62 1092.41 2090.83 1082.71 2090.82 1082.3C2090.82 1081.88 2160.79 1081.55 2246.32 1081.55C2379.26 1081.55 2401.82 1081.34 2401.82 1080.14C2401.82 1078.08 2391.89 1049.53 2383.45 1027.33C2375.12 1005.39 2360.96 971.896 2351 950.545L2344.23 936.045L2198.88 935.545L2053.53 935.045L2046.71 912.43C2017.1 814.176 1980.51 722.36 1933.17 627.545C1897.05 555.198 1862.25 495.134 1819.43 431.218L1803.32 407.17L1786.82 400.286C1728.96 376.146 1663.85 355.857 1603.32 343.101C1593.97 341.131 1585.3 339.291 1584.07 339.013C1582.83 338.735 1581.83 338.853 1581.84 339.276C1581.85 339.699 1586.41 345.22 1591.98 351.545C1732.65 511.491 1842.44 703.662 1910.93 909.78C1914.72 921.184 1917.82 930.971 1917.82 931.53C1917.82 932.214 1841.82 932.545 1684.82 932.545H1451.82V628.045V323.545H1386.32H1320.82V628.545ZM1320.82 1456.55V1834.55L1072.6 1834.3L824.388 1834.05L822.642 1826.55C789.429 1683.89 775.299 1557.66 777.139 1420.05C778.183 1341.94 783.145 1277.55 793.828 1203.46C799.358 1165.11 811.282 1099.64 815.895 1082.3L816.892 1078.55H1068.85H1320.82V1456.55ZM1957.2 1083.3C1959.6 1091.29 1971.43 1158.68 1975.78 1189.05C1988.91 1280.87 1993.45 1354.23 1992.52 1459.82C1991.6 1563.7 1985.25 1638.15 1969.29 1732.28C1963.34 1767.35 1952.29 1822.67 1949.21 1832.8C1948.71 1834.46 1935.98 1834.55 1700.25 1834.55H1451.82V1458.05V1081.55H1704.25C1943.79 1081.55 1956.71 1081.63 1957.2 1083.3Z" fill="white"/>
<path d="M3493.52 720.73H3107.81V897.666H3445.5V1031.28H3107.81V1353.84H2948.1V585.549H3493.52V720.73ZM3875.57 922.197C3815.72 922.197 3775.53 941.682 3755 980.653C3743.52 1002.57 3737.78 1036.33 3737.78 1081.91V1353.84H3587.99V784.928H3729.95V884.095C3752.92 846.168 3772.92 820.245 3789.97 806.327C3817.81 783.014 3854 771.358 3898.54 771.358C3901.32 771.358 3903.58 771.532 3905.32 771.88C3907.41 771.88 3911.76 772.054 3918.37 772.402V924.806C3908.98 923.762 3900.62 923.066 3893.32 922.718C3886.01 922.371 3880.1 922.197 3875.57 922.197ZM4158.98 784.928V1353.84H4008.14V784.928H4158.98ZM4158.98 579.808V717.077H4008.14V579.808H4158.98ZM4790.52 1186.82C4786.69 1220.57 4769.12 1254.84 4737.81 1289.64C4689.09 1344.96 4620.89 1372.63 4533.21 1372.63C4460.83 1372.63 4396.98 1349.31 4341.66 1302.69C4286.33 1256.06 4258.67 1180.21 4258.67 1075.12C4258.67 976.652 4283.55 901.145 4333.31 848.604C4383.41 796.063 4448.31 769.792 4527.99 769.792C4575.31 769.792 4617.94 778.665 4655.86 796.411C4693.79 814.156 4725.11 842.167 4749.81 880.442C4772.08 914.194 4786.52 953.339 4793.13 997.877C4796.96 1023.97 4798.52 1061.55 4797.83 1110.61H4408.47C4410.55 1167.68 4428.47 1207.69 4462.23 1230.66C4482.75 1244.93 4507.46 1252.06 4536.34 1252.06C4566.96 1252.06 4591.84 1243.36 4610.98 1225.96C4621.41 1216.57 4630.64 1203.52 4638.64 1186.82H4790.52ZM4643.34 1012.49C4640.9 973.172 4628.9 943.422 4607.32 923.24C4586.1 902.711 4559.65 892.446 4527.99 892.446C4493.54 892.446 4466.75 903.233 4447.61 924.806C4428.82 946.379 4416.99 975.608 4412.12 1012.49H4643.34ZM5166.31 895.056C5115.86 895.056 5081.24 916.455 5062.45 959.254C5052.71 981.871 5047.83 1010.75 5047.83 1045.89V1353.84H4899.61V785.972H5043.14V868.959C5062.27 839.731 5080.37 818.68 5097.42 805.805C5128.04 782.84 5166.84 771.358 5213.81 771.358C5272.61 771.358 5320.63 786.842 5357.86 817.81C5395.44 848.43 5414.23 899.405 5414.23 970.736V1353.84H5261.83V1007.79C5261.83 977.869 5257.83 954.904 5249.82 938.898C5235.21 909.67 5207.37 895.056 5166.31 895.056ZM6069.78 585.549V1353.84H5925.21V1275.02C5903.98 1308.78 5879.8 1333.31 5852.66 1348.62C5825.52 1363.93 5791.76 1371.58 5751.4 1371.58C5684.94 1371.58 5628.92 1344.79 5583.34 1291.2C5538.1 1237.27 5515.49 1168.2 5515.49 1084C5515.49 986.916 5537.76 910.54 5582.29 854.867C5627.18 799.194 5687.03 771.358 5761.84 771.358C5796.29 771.358 5826.91 779.013 5853.7 794.323C5880.49 809.285 5902.24 830.162 5918.94 856.955V585.549H6069.78ZM5668.94 1073.04C5668.94 1125.58 5679.37 1167.51 5700.25 1198.82C5720.78 1230.49 5752.1 1246.32 5794.2 1246.32C5836.3 1246.32 5868.31 1230.66 5890.24 1199.34C5912.16 1168.03 5923.12 1127.49 5923.12 1077.73C5923.12 1008.14 5905.55 958.384 5870.4 928.46C5848.83 910.366 5823.78 901.319 5795.24 901.319C5751.75 901.319 5719.74 917.847 5699.21 950.903C5679.03 983.611 5668.94 1024.32 5668.94 1073.04ZM6761.86 1353.84H6163.21V1218.13L6560.4 720.73H6173.12V584.505H6760.82V713.423L6358.41 1218.13H6761.86V1353.84ZM7333.38 856.955C7381.4 917.151 7405.41 988.308 7405.41 1070.43C7405.41 1153.94 7381.4 1225.44 7333.38 1284.94C7285.36 1344.09 7212.47 1373.67 7114.69 1373.67C7016.92 1373.67 6944.02 1344.09 6896 1284.94C6847.98 1225.44 6823.97 1153.94 6823.97 1070.43C6823.97 988.308 6847.98 917.151 6896 856.955C6944.02 796.758 7016.92 766.66 7114.69 766.66C7212.47 766.66 7285.36 796.758 7333.38 856.955ZM7114.17 892.446C7070.68 892.446 7037.1 907.93 7013.44 938.898C6990.12 969.519 6978.47 1013.36 6978.47 1070.43C6978.47 1127.49 6990.12 1171.51 7013.44 1202.47C7037.1 1233.44 7070.68 1248.93 7114.17 1248.93C7157.66 1248.93 7191.07 1233.44 7214.38 1202.47C7237.69 1171.51 7249.35 1127.49 7249.35 1070.43C7249.35 1013.36 7237.69 969.519 7214.38 938.898C7191.07 907.93 7157.66 892.446 7114.17 892.446ZM7780.16 895.056C7729.7 895.056 7695.08 916.455 7676.29 959.254C7666.55 981.871 7661.68 1010.75 7661.68 1045.89V1353.84H7513.45V785.972H7656.98V868.959C7676.12 839.731 7694.21 818.68 7711.26 805.805C7741.88 782.84 7780.68 771.358 7827.65 771.358C7886.46 771.358 7934.48 786.842 7971.71 817.81C8009.29 848.43 8028.08 899.405 8028.08 970.736V1353.84H7875.67V1007.79C7875.67 977.869 7871.67 954.904 7863.67 938.898C7849.05 909.67 7821.22 895.056 7780.16 895.056ZM8652.83 1186.82C8649 1220.57 8631.43 1254.84 8600.12 1289.64C8551.4 1344.96 8483.2 1372.63 8395.52 1372.63C8323.14 1372.63 8259.29 1349.31 8203.97 1302.69C8148.64 1256.06 8120.98 1180.21 8120.98 1075.12C8120.98 976.652 8145.86 901.145 8195.62 848.604C8245.72 796.063 8310.62 769.792 8390.3 769.792C8437.62 769.792 8480.24 778.665 8518.17 796.411C8556.1 814.156 8587.41 842.167 8612.12 880.442C8634.39 914.194 8648.83 953.339 8655.44 997.877C8659.27 1023.97 8660.83 1061.55 8660.14 1110.61H8270.78C8272.86 1167.68 8290.78 1207.69 8324.53 1230.66C8345.06 1244.93 8369.77 1252.06 8398.65 1252.06C8429.27 1252.06 8454.15 1243.36 8473.29 1225.96C8483.72 1216.57 8492.94 1203.52 8500.95 1186.82H8652.83ZM8505.65 1012.49C8503.21 973.172 8491.21 943.422 8469.63 923.24C8448.41 902.711 8421.96 892.446 8390.3 892.446C8355.85 892.446 8329.06 903.233 8309.92 924.806C8291.13 946.379 8279.3 975.608 8274.43 1012.49H8505.65Z" fill="white"/>
<path d="M3155.77 1761.34H2978.08V1842.85H3133.65V1904.41H2978.08V2053H2904.51V1699.07H3155.77V1761.34ZM3270.46 1790.92V2053H3200.98V1790.92H3270.46ZM3270.46 1696.42V1759.66H3200.98V1696.42H3270.46ZM3460.41 1841.65C3437.17 1841.65 3421.22 1851.51 3412.57 1871.22C3408.08 1881.64 3405.83 1894.95 3405.83 1911.14V2053H3337.55V1791.4H3403.67V1829.63C3412.49 1816.16 3420.82 1806.47 3428.68 1800.53C3442.78 1789.96 3460.65 1784.67 3482.29 1784.67C3509.38 1784.67 3531.5 1791.8 3548.66 1806.06C3565.97 1820.17 3574.62 1843.65 3574.62 1876.51V2053H3504.41V1893.59C3504.41 1879.8 3502.57 1869.22 3498.88 1861.85C3492.15 1848.38 3479.33 1841.65 3460.41 1841.65ZM3876.62 1699.07V2053H3810.02V2016.69C3800.24 2032.24 3789.1 2043.54 3776.6 2050.6C3764.09 2057.65 3748.54 2061.18 3729.95 2061.18C3699.33 2061.18 3673.53 2048.83 3652.53 2024.15C3631.69 1999.3 3621.27 1967.48 3621.27 1928.69C3621.27 1883.97 3631.53 1848.78 3652.05 1823.14C3672.73 1797.49 3700.3 1784.67 3734.76 1784.67C3750.63 1784.67 3764.73 1788.19 3777.08 1795.24C3789.42 1802.14 3799.44 1811.76 3807.13 1824.1V1699.07H3876.62ZM3691.96 1923.64C3691.96 1947.85 3696.77 1967.16 3706.39 1981.59C3715.84 1996.18 3730.27 2003.47 3749.67 2003.47C3769.06 2003.47 3783.81 1996.26 3793.91 1981.83C3804.01 1967.4 3809.06 1948.73 3809.06 1925.81C3809.06 1893.75 3800.96 1870.82 3784.77 1857.04C3774.83 1848.7 3763.29 1844.54 3750.15 1844.54C3730.11 1844.54 3715.36 1852.15 3705.91 1867.38C3696.61 1882.45 3691.96 1901.2 3691.96 1923.64ZM4182.71 1984.23L4236.8 1790.92H4309.66L4219.73 2048.67C4202.42 2098.36 4188.72 2129.14 4178.62 2141C4168.52 2153.02 4148.32 2159.04 4118.03 2159.04C4111.93 2159.04 4107.05 2158.96 4103.36 2158.8C4099.67 2158.8 4094.14 2158.55 4086.77 2158.07V2103.25L4095.42 2103.73C4102.16 2104.05 4108.57 2103.81 4114.66 2103.01C4120.75 2102.21 4125.88 2100.37 4130.05 2097.48C4134.06 2094.76 4137.74 2089.07 4141.11 2080.41C4144.64 2071.75 4146.08 2066.46 4145.44 2064.54L4049.26 1790.92H4125.48L4182.71 1984.23ZM4568.86 1824.1C4590.98 1851.83 4602.04 1884.61 4602.04 1922.44C4602.04 1960.91 4590.98 1993.85 4568.86 2021.26C4546.74 2048.51 4513.15 2062.14 4468.11 2062.14C4423.07 2062.14 4389.49 2048.51 4367.37 2021.26C4345.24 1993.85 4334.18 1960.91 4334.18 1922.44C4334.18 1884.61 4345.24 1851.83 4367.37 1824.1C4389.49 1796.37 4423.07 1782.5 4468.11 1782.5C4513.15 1782.5 4546.74 1796.37 4568.86 1824.1ZM4467.87 1840.45C4447.83 1840.45 4432.37 1847.58 4421.47 1861.85C4410.73 1875.95 4405.36 1896.15 4405.36 1922.44C4405.36 1948.73 4410.73 1969.01 4421.47 1983.27C4432.37 1997.54 4447.83 2004.67 4467.87 2004.67C4487.91 2004.67 4503.3 1997.54 4514.04 1983.27C4524.78 1969.01 4530.15 1948.73 4530.15 1922.44C4530.15 1896.15 4524.78 1875.95 4514.04 1861.85C4503.3 1847.58 4487.91 1840.45 4467.87 1840.45ZM4819.4 2015.97C4818.76 2016.77 4817.15 2019.18 4814.59 2023.19C4812.03 2027.19 4808.98 2030.72 4805.45 2033.76C4794.71 2043.38 4784.29 2049.95 4774.2 2053.48C4764.26 2057.01 4752.56 2058.77 4739.09 2058.77C4700.3 2058.77 4674.17 2044.82 4660.71 2016.93C4653.17 2001.55 4649.41 1978.86 4649.41 1948.89V1790.92H4719.61V1948.89C4719.61 1963.8 4721.38 1975.02 4724.9 1982.55C4731.16 1995.85 4743.42 2002.51 4761.69 2002.51C4785.1 2002.51 4801.13 1993.05 4809.78 1974.13C4814.27 1963.88 4816.51 1950.33 4816.51 1933.5V1790.92H4886V2053H4819.4V2015.97ZM5084.13 1854.15C5056.56 1854.15 5038.04 1863.13 5028.58 1881.08C5023.29 1891.18 5020.65 1906.73 5020.65 1927.73V2053H4951.64V1790.92H5017.04V1836.6C5027.62 1819.13 5036.84 1807.19 5044.69 1800.78C5057.52 1790.04 5074.19 1784.67 5094.71 1784.67C5095.99 1784.67 5097.03 1784.75 5097.83 1784.91C5098.79 1784.91 5100.8 1784.99 5103.84 1785.15V1855.36C5099.52 1854.87 5095.67 1854.55 5092.3 1854.39C5088.94 1854.23 5086.21 1854.15 5084.13 1854.15ZM5404.16 1696.42V1752.21C5400.31 1751.72 5393.82 1751.4 5384.68 1751.24C5375.7 1750.92 5369.45 1752.93 5365.93 1757.25C5362.56 1761.42 5360.88 1766.07 5360.88 1771.2V1793.32H5405.84V1841.65H5360.88V2053H5292.59V1841.65H5254.36V1793.32H5291.87V1776.49C5291.87 1748.44 5296.6 1729.12 5306.06 1718.54C5315.99 1702.83 5339.96 1694.98 5377.95 1694.98C5382.28 1694.98 5386.2 1695.14 5389.73 1695.46C5393.26 1695.62 5398.07 1695.94 5404.16 1696.42ZM5577.04 1854.15C5549.46 1854.15 5530.95 1863.13 5521.49 1881.08C5516.2 1891.18 5513.56 1906.73 5513.56 1927.73V2053H5444.55V1790.92H5509.95V1836.6C5520.53 1819.13 5529.75 1807.19 5537.6 1800.78C5550.43 1790.04 5567.1 1784.67 5587.61 1784.67C5588.9 1784.67 5589.94 1784.75 5590.74 1784.91C5591.7 1784.91 5593.71 1784.99 5596.75 1785.15V1855.36C5592.42 1854.87 5588.58 1854.55 5585.21 1854.39C5581.84 1854.23 5579.12 1854.15 5577.04 1854.15ZM5707.6 1790.92V2053H5638.11V1790.92H5707.6ZM5707.6 1696.42V1759.66H5638.11V1696.42H5707.6ZM5998.53 1976.06C5996.77 1991.61 5988.67 2007.4 5974.25 2023.43C5951.81 2048.91 5920.39 2061.66 5879.99 2061.66C5846.65 2061.66 5817.24 2050.92 5791.75 2029.44C5766.26 2007.96 5753.52 1973.01 5753.52 1924.6C5753.52 1879.24 5764.98 1844.46 5787.9 1820.25C5810.99 1796.05 5840.88 1783.94 5877.59 1783.94C5899.39 1783.94 5919.03 1788.03 5936.5 1796.21C5953.97 1804.38 5968.4 1817.29 5979.78 1834.92C5990.04 1850.47 5996.69 1868.5 5999.73 1889.02C6001.5 1901.04 6002.22 1918.35 6001.9 1940.95H5822.53C5823.49 1967.24 5831.74 1985.68 5847.29 1996.26C5856.75 2002.83 5868.13 2006.11 5881.44 2006.11C5895.54 2006.11 5907 2002.11 5915.82 1994.09C5920.63 1989.76 5924.88 1983.75 5928.56 1976.06H5998.53ZM5930.73 1895.75C5929.61 1877.64 5924.07 1863.93 5914.14 1854.63C5904.36 1845.18 5892.18 1840.45 5877.59 1840.45C5861.72 1840.45 5849.38 1845.42 5840.56 1855.36C5831.91 1865.29 5826.45 1878.76 5824.21 1895.75H5930.73ZM6171.65 1841.65C6148.41 1841.65 6132.46 1851.51 6123.8 1871.22C6119.31 1881.64 6117.07 1894.95 6117.07 1911.14V2053H6048.78V1791.4H6114.91V1829.63C6123.72 1816.16 6132.06 1806.47 6139.91 1800.53C6154.02 1789.96 6171.89 1784.67 6193.53 1784.67C6220.62 1784.67 6242.74 1791.8 6259.89 1806.06C6277.21 1820.17 6285.86 1843.65 6285.86 1876.51V2053H6215.65V1893.59C6215.65 1879.8 6213.81 1869.22 6210.12 1861.85C6203.39 1848.38 6190.57 1841.65 6171.65 1841.65ZM6587.86 1699.07V2053H6521.26V2016.69C6511.48 2032.24 6500.34 2043.54 6487.83 2050.6C6475.33 2057.65 6459.78 2061.18 6441.19 2061.18C6410.57 2061.18 6384.76 2048.83 6363.77 2024.15C6342.93 1999.3 6332.51 1967.48 6332.51 1928.69C6332.51 1883.97 6342.77 1848.78 6363.28 1823.14C6383.96 1797.49 6411.53 1784.67 6446 1784.67C6461.87 1784.67 6475.97 1788.19 6488.31 1795.24C6500.66 1802.14 6510.68 1811.76 6518.37 1824.1V1699.07H6587.86ZM6403.2 1923.64C6403.2 1947.85 6408.01 1967.16 6417.62 1981.59C6427.08 1996.18 6441.51 2003.47 6460.9 2003.47C6480.3 2003.47 6495.05 1996.26 6505.15 1981.83C6515.24 1967.4 6520.29 1948.73 6520.29 1925.81C6520.29 1893.75 6512.2 1870.82 6496.01 1857.04C6486.07 1848.7 6474.53 1844.54 6461.39 1844.54C6441.35 1844.54 6426.6 1852.15 6417.14 1867.38C6407.85 1882.45 6403.2 1901.2 6403.2 1923.64ZM6830.95 1802.94C6851.46 1816.08 6863.25 1838.68 6866.29 1870.74H6797.77C6796.8 1861.93 6794.32 1854.95 6790.31 1849.83C6782.78 1840.53 6769.95 1835.88 6751.84 1835.88C6736.93 1835.88 6726.27 1838.2 6719.86 1842.85C6713.61 1847.5 6710.48 1852.95 6710.48 1859.2C6710.48 1867.06 6713.85 1872.75 6720.58 1876.27C6727.32 1879.96 6751.12 1886.29 6791.99 1895.27C6819.24 1901.68 6839.68 1911.38 6853.31 1924.36C6866.77 1937.51 6873.51 1953.94 6873.51 1973.65C6873.51 1999.62 6863.81 2020.86 6844.41 2037.37C6825.18 2053.72 6795.36 2061.9 6754.97 2061.9C6713.77 2061.9 6683.31 2053.24 6663.6 2035.93C6644.04 2018.46 6634.26 1996.26 6634.26 1969.33H6703.75C6705.19 1981.51 6708.32 1990.16 6713.13 1995.29C6721.63 2004.43 6737.33 2009 6760.26 2009C6773.72 2009 6784.38 2007 6792.24 2002.99C6800.25 1998.98 6804.26 1992.97 6804.26 1984.95C6804.26 1977.26 6801.05 1971.41 6794.64 1967.4C6788.23 1963.39 6764.42 1956.5 6723.23 1946.72C6693.57 1939.35 6672.65 1930.13 6660.47 1919.07C6648.29 1908.17 6642.2 1892.46 6642.2 1871.95C6642.2 1847.74 6651.66 1826.98 6670.57 1809.67C6689.65 1792.2 6716.42 1783.46 6750.88 1783.46C6783.58 1783.46 6810.27 1789.96 6830.95 1802.94Z" fill="white"/>
</svg>
